<svg width="270" height="249" viewBox="0 0 270 249" fill="none" xmlns="http://www.w3.org/2000/svg">
<line x1="13" y1="204.5" x2="260" y2="204.5" stroke="#C5BDD6" stroke-width="3"/>
<rect x="130.817" y="121" width="7.22366" height="82.1692" rx="3.61183" fill="#6A5D7B"/>
<rect x="99.8109" y="128.219" width="69.2366" height="52.3814" rx="3.5" fill="#F6F5F8" stroke="#6A5D7B" stroke-width="3"/>
<rect x="96.5" y="127.617" width="76.1593" height="4.52465" rx="2.26232" fill="#F6F5F8" stroke="#6A5D7B" stroke-width="3"/>
<rect x="118.477" y="197.45" width="32.5065" height="5.71873" rx="2.85937" fill="#6A5D7B"/>
<mask id="path-6-outside-1_41_369" maskUnits="userSpaceOnUse" x="175.152" y="155" width="30" height="48" fill="black">
<rect fill="white" x="175.152" y="155" width="30" height="48"/>
<path fill-rule="evenodd" clip-rule="evenodd" d="M180.162 166.632C180.162 161.312 184.474 157 189.794 157C195.113 157 199.425 161.312 199.425 166.632V172.265C199.425 174.026 198.953 175.677 198.127 177.097H200.035C201.361 177.097 202.435 178.172 202.435 179.497C202.435 180.822 201.361 181.897 200.035 181.897H191.6V188.63C192.512 188.78 193.407 189.052 194.264 189.443C195.633 190.069 196.877 190.986 197.925 192.142C198.973 193.298 199.805 194.67 200.372 196.18C200.816 197.362 201.091 198.611 201.19 199.882C201.235 200.467 200.755 200.944 200.168 200.944C199.581 200.944 199.11 200.467 199.054 199.883C198.962 198.92 198.745 197.975 198.408 197.077C197.947 195.852 197.273 194.738 196.422 193.8C195.571 192.861 194.561 192.117 193.45 191.609C192.338 191.102 191.147 190.84 189.944 190.84C188.741 190.84 187.55 191.102 186.438 191.609C185.327 192.117 184.317 192.861 183.466 193.8C182.616 194.738 181.941 195.852 181.481 197.077C181.143 197.975 180.926 198.92 180.834 199.883C180.778 200.467 180.307 200.944 179.72 200.944C179.133 200.944 178.653 200.467 178.698 199.882C178.797 198.611 179.072 197.362 179.516 196.18C180.084 194.67 180.915 193.298 181.963 192.142C183.011 190.986 184.255 190.069 185.625 189.443C186.481 189.052 187.376 188.78 188.289 188.63V181.897H179.552C178.227 181.897 177.152 180.822 177.152 179.497C177.152 178.172 178.227 177.097 179.552 177.097H181.46C180.635 175.677 180.162 174.026 180.162 172.265V166.632ZM181.968 171.698H197.619V176.797H181.968V171.698Z"/>
</mask>
<path fill-rule="evenodd" clip-rule="evenodd" d="M180.162 166.632C180.162 161.312 184.474 157 189.794 157C195.113 157 199.425 161.312 199.425 166.632V172.265C199.425 174.026 198.953 175.677 198.127 177.097H200.035C201.361 177.097 202.435 178.172 202.435 179.497C202.435 180.822 201.361 181.897 200.035 181.897H191.6V188.63C192.512 188.78 193.407 189.052 194.264 189.443C195.633 190.069 196.877 190.986 197.925 192.142C198.973 193.298 199.805 194.67 200.372 196.18C200.816 197.362 201.091 198.611 201.19 199.882C201.235 200.467 200.755 200.944 200.168 200.944C199.581 200.944 199.11 200.467 199.054 199.883C198.962 198.92 198.745 197.975 198.408 197.077C197.947 195.852 197.273 194.738 196.422 193.8C195.571 192.861 194.561 192.117 193.45 191.609C192.338 191.102 191.147 190.84 189.944 190.84C188.741 190.84 187.55 191.102 186.438 191.609C185.327 192.117 184.317 192.861 183.466 193.8C182.616 194.738 181.941 195.852 181.481 197.077C181.143 197.975 180.926 198.92 180.834 199.883C180.778 200.467 180.307 200.944 179.72 200.944C179.133 200.944 178.653 200.467 178.698 199.882C178.797 198.611 179.072 197.362 179.516 196.18C180.084 194.67 180.915 193.298 181.963 192.142C183.011 190.986 184.255 190.069 185.625 189.443C186.481 189.052 187.376 188.78 188.289 188.63V181.897H179.552C178.227 181.897 177.152 180.822 177.152 179.497C177.152 178.172 178.227 177.097 179.552 177.097H181.46C180.635 175.677 180.162 174.026 180.162 172.265V166.632ZM181.968 171.698H197.619V176.797H181.968V171.698Z" fill="#C5BDD6"/>
<path d="M198.127 177.097L196.398 176.092L194.652 179.097H198.127V177.097ZM191.6 181.897V179.897H189.6V181.897H191.6ZM191.6 188.63H189.6V190.33L191.277 190.604L191.6 188.63ZM194.264 189.443L195.095 187.624H195.095L194.264 189.443ZM197.925 192.142L196.444 193.485L196.444 193.485L197.925 192.142ZM200.372 196.18L202.244 195.477L200.372 196.18ZM201.19 199.882L203.184 199.727V199.727L201.19 199.882ZM200.168 200.944L200.168 198.944H200.168V200.944ZM199.054 199.883L197.064 200.073L199.054 199.883ZM198.408 197.077L200.28 196.374L200.28 196.374L198.408 197.077ZM196.422 193.8L194.94 195.143L194.94 195.143L196.422 193.8ZM193.45 191.609L192.619 193.429H192.619L193.45 191.609ZM186.438 191.609L185.607 189.79L186.438 191.609ZM183.466 193.8L181.985 192.456L181.985 192.456L183.466 193.8ZM181.481 197.077L183.353 197.781L181.481 197.077ZM180.834 199.883L178.843 199.692L180.834 199.883ZM179.72 200.944L179.72 198.944H179.72V200.944ZM178.698 199.882L180.692 200.037V200.037L178.698 199.882ZM179.516 196.18L181.389 196.883H181.389L179.516 196.18ZM181.963 192.142L180.481 190.798H180.481L181.963 192.142ZM185.625 189.443L184.794 187.624H184.794L185.625 189.443ZM188.289 188.63L188.612 190.604L190.289 190.33V188.63H188.289ZM188.289 181.897H190.289V179.897H188.289V181.897ZM181.46 177.097V179.097H184.936L183.19 176.092L181.46 177.097ZM197.619 171.698H199.619V169.698H197.619V171.698ZM181.968 171.698V169.698H179.968V171.698H181.968ZM197.619 176.797V178.797H199.619V176.797H197.619ZM181.968 176.797H179.968V178.797H181.968V176.797ZM189.794 155C183.37 155 178.162 160.208 178.162 166.632H182.162C182.162 162.417 185.579 159 189.794 159V155ZM201.425 166.632C201.425 160.208 196.218 155 189.794 155V159C194.009 159 197.425 162.417 197.425 166.632H201.425ZM201.425 172.265V166.632H197.425V172.265H201.425ZM199.856 178.102C200.854 176.385 201.425 174.389 201.425 172.265H197.425C197.425 173.664 197.051 174.969 196.398 176.092L199.856 178.102ZM200.035 175.097H198.127V179.097H200.035V175.097ZM204.435 179.497C204.435 177.067 202.465 175.097 200.035 175.097V179.097C200.256 179.097 200.435 179.276 200.435 179.497H204.435ZM200.035 183.897C202.465 183.897 204.435 181.927 204.435 179.497H200.435C200.435 179.718 200.256 179.897 200.035 179.897V183.897ZM191.6 183.897H200.035V179.897H191.6V183.897ZM193.6 188.63V181.897H189.6V188.63H193.6ZM191.277 190.604C192.012 190.724 192.736 190.944 193.432 191.262L195.095 187.624C194.078 187.16 193.013 186.835 191.922 186.656L191.277 190.604ZM193.432 191.262C194.546 191.771 195.571 192.523 196.444 193.485L199.407 190.798C198.183 189.449 196.72 188.367 195.095 187.624L193.432 191.262ZM196.444 193.485C197.317 194.448 198.018 195.601 198.5 196.883L202.244 195.477C201.591 193.739 200.63 192.147 199.407 190.798L196.444 193.485ZM198.5 196.883C198.877 197.887 199.112 198.951 199.196 200.037L203.184 199.727C203.071 198.271 202.755 196.838 202.244 195.477L198.5 196.883ZM199.196 200.037C199.143 199.357 199.696 198.944 200.168 198.944L200.168 202.944C201.815 202.944 203.328 201.578 203.184 199.727L199.196 200.037ZM200.168 198.944C200.729 198.944 201.015 199.371 201.045 199.692L197.064 200.073C197.206 201.563 198.434 202.944 200.168 202.944V198.944ZM201.045 199.692C200.937 198.556 200.68 197.439 200.28 196.374L196.536 197.781C196.81 198.511 196.988 199.283 197.064 200.073L201.045 199.692ZM200.28 196.374C199.734 194.92 198.929 193.588 197.904 192.456L194.94 195.143C195.616 195.888 196.161 196.783 196.536 197.781L200.28 196.374ZM197.904 192.456C196.877 191.324 195.648 190.415 194.281 189.79L192.619 193.429C193.474 193.819 194.265 194.398 194.94 195.143L197.904 192.456ZM194.281 189.79C192.913 189.165 191.439 188.84 189.944 188.84V192.84C190.856 192.84 191.764 193.038 192.619 193.429L194.281 189.79ZM189.944 188.84C188.45 188.84 186.975 189.165 185.607 189.79L187.269 193.429C188.124 193.038 189.033 192.84 189.944 192.84V188.84ZM185.607 189.79C184.24 190.415 183.011 191.324 181.985 192.456L184.948 195.143C185.623 194.398 186.414 193.819 187.269 193.429L185.607 189.79ZM181.985 192.456C180.959 193.588 180.154 194.92 179.608 196.374L183.353 197.781C183.728 196.783 184.273 195.888 184.948 195.143L181.985 192.456ZM179.608 196.374C179.208 197.439 178.952 198.556 178.843 199.692L182.825 200.073C182.9 199.283 183.078 198.511 183.353 197.781L179.608 196.374ZM178.843 199.692C178.874 199.371 179.16 198.944 179.72 198.944L179.72 202.944C181.455 202.944 182.682 201.563 182.825 200.073L178.843 199.692ZM179.72 198.944C180.192 198.944 180.745 199.357 180.692 200.037L176.704 199.727C176.561 201.578 178.074 202.944 179.72 202.944V198.944ZM180.692 200.037C180.777 198.951 181.012 197.887 181.389 196.883L177.644 195.477C177.133 196.838 176.817 198.271 176.704 199.727L180.692 200.037ZM181.389 196.883C181.87 195.601 182.572 194.448 183.445 193.485L180.481 190.798C179.258 192.147 178.297 193.739 177.644 195.477L181.389 196.883ZM183.445 193.485C184.317 192.523 185.342 191.771 186.456 191.262L184.794 187.624C183.168 188.367 181.705 189.449 180.481 190.798L183.445 193.485ZM186.456 191.262C187.152 190.944 187.876 190.724 188.612 190.604L187.966 186.656C186.876 186.835 185.81 187.16 184.794 187.624L186.456 191.262ZM186.289 181.897V188.63H190.289V181.897H186.289ZM179.552 183.897H188.289V179.897H179.552V183.897ZM175.152 179.497C175.152 181.927 177.122 183.897 179.552 183.897V179.897C179.331 179.897 179.152 179.718 179.152 179.497H175.152ZM179.552 175.097C177.122 175.097 175.152 177.067 175.152 179.497H179.152C179.152 179.276 179.331 179.097 179.552 179.097V175.097ZM181.46 175.097H179.552V179.097H181.46V175.097ZM178.162 172.265C178.162 174.389 178.733 176.385 179.731 178.102L183.19 176.092C182.537 174.969 182.162 173.664 182.162 172.265H178.162ZM178.162 166.632V172.265H182.162V166.632H178.162ZM197.619 169.698H181.968V173.698H197.619V169.698ZM199.619 176.797V171.698H195.619V176.797H199.619ZM181.968 178.797H197.619V174.797H181.968V178.797ZM179.968 171.698V176.797H183.968V171.698H179.968Z" fill="#6A5D7B" mask="url(#path-6-outside-1_41_369)"/>
<mask id="path-8-outside-2_41_369" maskUnits="userSpaceOnUse" x="203.445" y="155.208" width="30" height="48" fill="black">
<rect fill="white" x="203.445" y="155.208" width="30" height="48"/>
<path fill-rule="evenodd" clip-rule="evenodd" d="M208.455 166.839C208.455 161.52 212.767 157.208 218.087 157.208C223.406 157.208 227.718 161.52 227.718 166.839V172.473C227.718 174.234 227.246 175.884 226.42 177.305H228.328C229.654 177.305 230.728 178.379 230.728 179.705C230.728 181.03 229.654 182.104 228.328 182.104H219.893V188.838C220.805 188.987 221.7 189.26 222.556 189.651C223.926 190.276 225.17 191.193 226.218 192.349C227.266 193.505 228.098 194.878 228.665 196.388C229.109 197.57 229.384 198.819 229.483 200.09C229.528 200.675 229.048 201.152 228.461 201.152C227.874 201.152 227.403 200.675 227.347 200.09C227.255 199.128 227.038 198.183 226.701 197.285C226.24 196.059 225.566 194.945 224.715 194.007C223.864 193.069 222.854 192.325 221.743 191.817C220.631 191.309 219.44 191.048 218.237 191.048C217.034 191.048 215.843 191.309 214.731 191.817C213.62 192.325 212.61 193.069 211.759 194.007C210.909 194.945 210.234 196.059 209.773 197.285C209.436 198.183 209.219 199.128 209.127 200.09C209.071 200.675 208.6 201.152 208.013 201.152C207.426 201.152 206.946 200.675 206.991 200.09C207.09 198.819 207.365 197.57 207.809 196.388C208.377 194.878 209.208 193.505 210.256 192.349C211.304 191.193 212.548 190.276 213.918 189.651C214.774 189.26 215.669 188.987 216.582 188.838V182.104H207.845C206.52 182.104 205.445 181.03 205.445 179.705C205.445 178.379 206.52 177.305 207.845 177.305H209.753C208.928 175.884 208.455 174.234 208.455 172.473V166.839ZM210.261 171.906H225.912V177.005H210.261V171.906Z"/>
</mask>
<path fill-rule="evenodd" clip-rule="evenodd" d="M208.455 166.839C208.455 161.52 212.767 157.208 218.087 157.208C223.406 157.208 227.718 161.52 227.718 166.839V172.473C227.718 174.234 227.246 175.884 226.42 177.305H228.328C229.654 177.305 230.728 178.379 230.728 179.705C230.728 181.03 229.654 182.104 228.328 182.104H219.893V188.838C220.805 188.987 221.7 189.26 222.556 189.651C223.926 190.276 225.17 191.193 226.218 192.349C227.266 193.505 228.098 194.878 228.665 196.388C229.109 197.57 229.384 198.819 229.483 200.09C229.528 200.675 229.048 201.152 228.461 201.152C227.874 201.152 227.403 200.675 227.347 200.09C227.255 199.128 227.038 198.183 226.701 197.285C226.24 196.059 225.566 194.945 224.715 194.007C223.864 193.069 222.854 192.325 221.743 191.817C220.631 191.309 219.44 191.048 218.237 191.048C217.034 191.048 215.843 191.309 214.731 191.817C213.62 192.325 212.61 193.069 211.759 194.007C210.909 194.945 210.234 196.059 209.773 197.285C209.436 198.183 209.219 199.128 209.127 200.09C209.071 200.675 208.6 201.152 208.013 201.152C207.426 201.152 206.946 200.675 206.991 200.09C207.09 198.819 207.365 197.57 207.809 196.388C208.377 194.878 209.208 193.505 210.256 192.349C211.304 191.193 212.548 190.276 213.918 189.651C214.774 189.26 215.669 188.987 216.582 188.838V182.104H207.845C206.52 182.104 205.445 181.03 205.445 179.705C205.445 178.379 206.52 177.305 207.845 177.305H209.753C208.928 175.884 208.455 174.234 208.455 172.473V166.839ZM210.261 171.906H225.912V177.005H210.261V171.906Z" fill="#C5BDD6"/>
<path d="M226.42 177.305L224.691 176.3L222.945 179.305H226.42V177.305ZM219.893 182.104V180.104H217.893V182.104H219.893ZM219.893 188.838H217.893V190.537L219.57 190.812L219.893 188.838ZM222.556 189.651L223.388 187.832H223.388L222.556 189.651ZM226.218 192.349L224.737 193.693L224.737 193.693L226.218 192.349ZM228.665 196.388L230.537 195.685L228.665 196.388ZM229.483 200.09L231.477 199.935V199.935L229.483 200.09ZM228.461 201.152L228.461 199.152H228.461V201.152ZM227.347 200.09L225.357 200.281L227.347 200.09ZM226.701 197.285L228.573 196.582L228.573 196.582L226.701 197.285ZM224.715 194.007L223.233 195.351L223.233 195.351L224.715 194.007ZM221.743 191.817L220.912 193.636H220.912L221.743 191.817ZM214.731 191.817L213.9 189.998L214.731 191.817ZM211.759 194.007L210.278 192.664L210.278 192.664L211.759 194.007ZM209.773 197.285L211.646 197.988L209.773 197.285ZM209.127 200.09L207.136 199.899L209.127 200.09ZM208.013 201.152L208.013 199.152H208.013V201.152ZM206.991 200.09L208.985 200.244V200.244L206.991 200.09ZM207.809 196.388L209.682 197.091H209.682L207.809 196.388ZM210.256 192.349L208.774 191.006H208.774L210.256 192.349ZM213.918 189.651L213.087 187.832H213.087L213.918 189.651ZM216.582 188.838L216.905 190.812L218.582 190.537V188.838H216.582ZM216.582 182.104H218.582V180.104H216.582V182.104ZM209.753 177.305V179.305H213.229L211.482 176.3L209.753 177.305ZM225.912 171.906H227.912V169.906H225.912V171.906ZM210.261 171.906V169.906H208.261V171.906H210.261ZM225.912 177.005V179.005H227.912V177.005H225.912ZM210.261 177.005H208.261V179.005H210.261V177.005ZM218.087 155.208C211.663 155.208 206.455 160.415 206.455 166.839H210.455C210.455 162.624 213.872 159.208 218.087 159.208V155.208ZM229.718 166.839C229.718 160.415 224.511 155.208 218.087 155.208V159.208C222.302 159.208 225.718 162.624 225.718 166.839H229.718ZM229.718 172.473V166.839H225.718V172.473H229.718ZM228.149 178.31C229.147 176.592 229.718 174.596 229.718 172.473H225.718C225.718 173.871 225.344 175.177 224.691 176.3L228.149 178.31ZM228.328 175.305H226.42V179.305H228.328V175.305ZM232.728 179.705C232.728 177.275 230.758 175.305 228.328 175.305V179.305C228.549 179.305 228.728 179.484 228.728 179.705H232.728ZM228.328 184.104C230.758 184.104 232.728 182.134 232.728 179.705H228.728C228.728 179.925 228.549 180.104 228.328 180.104V184.104ZM219.893 184.104H228.328V180.104H219.893V184.104ZM221.893 188.838V182.104H217.893V188.838H221.893ZM219.57 190.812C220.305 190.932 221.029 191.152 221.725 191.47L223.388 187.832C222.371 187.367 221.306 187.042 220.215 186.864L219.57 190.812ZM221.725 191.47C222.839 191.979 223.864 192.73 224.737 193.693L227.7 191.006C226.476 189.656 225.013 188.574 223.388 187.832L221.725 191.47ZM224.737 193.693C225.61 194.655 226.311 195.809 226.793 197.091L230.537 195.685C229.884 193.946 228.923 192.355 227.7 191.006L224.737 193.693ZM226.793 197.091C227.17 198.095 227.405 199.159 227.489 200.244L231.477 199.935C231.364 198.479 231.048 197.046 230.537 195.685L226.793 197.091ZM227.489 200.244C227.436 199.564 227.989 199.152 228.461 199.152L228.461 203.152C230.108 203.152 231.621 201.786 231.477 199.935L227.489 200.244ZM228.461 199.152C229.022 199.152 229.308 199.579 229.338 199.9L225.357 200.281C225.499 201.771 226.726 203.152 228.461 203.152V199.152ZM229.338 199.9C229.23 198.764 228.973 197.647 228.573 196.582L224.829 197.988C225.103 198.719 225.281 199.491 225.357 200.281L229.338 199.9ZM228.573 196.582C228.027 195.128 227.222 193.795 226.197 192.664L223.233 195.351C223.909 196.096 224.454 196.99 224.829 197.988L228.573 196.582ZM226.197 192.664C225.17 191.532 223.941 190.623 222.574 189.998L220.912 193.636C221.767 194.027 222.558 194.606 223.233 195.351L226.197 192.664ZM222.574 189.998C221.206 189.373 219.732 189.048 218.237 189.048V193.048C219.149 193.048 220.057 193.246 220.912 193.636L222.574 189.998ZM218.237 189.048C216.743 189.048 215.268 189.373 213.9 189.998L215.562 193.636C216.417 193.246 217.325 193.048 218.237 193.048V189.048ZM213.9 189.998C212.533 190.623 211.304 191.532 210.278 192.664L213.241 195.351C213.916 194.606 214.707 194.027 215.562 193.636L213.9 189.998ZM210.278 192.664C209.252 193.795 208.447 195.128 207.901 196.582L211.646 197.988C212.021 196.99 212.565 196.096 213.241 195.351L210.278 192.664ZM207.901 196.582C207.501 197.647 207.245 198.764 207.136 199.899L211.118 200.281C211.193 199.491 211.371 198.719 211.646 197.988L207.901 196.582ZM207.136 199.899C207.167 199.579 207.453 199.152 208.013 199.152L208.013 203.152C209.748 203.152 210.975 201.771 211.118 200.281L207.136 199.899ZM208.013 199.152C208.485 199.152 209.038 199.564 208.985 200.244L204.997 199.935C204.854 201.786 206.367 203.152 208.013 203.152V199.152ZM208.985 200.244C209.07 199.159 209.305 198.095 209.682 197.091L205.937 195.685C205.426 197.046 205.11 198.479 204.997 199.935L208.985 200.244ZM209.682 197.091C210.163 195.809 210.865 194.655 211.738 193.693L208.774 191.006C207.551 192.355 206.59 193.946 205.937 195.685L209.682 197.091ZM211.738 193.693C212.61 192.73 213.635 191.979 214.749 191.47L213.087 187.832C211.461 188.574 209.998 189.656 208.774 191.006L211.738 193.693ZM214.749 191.47C215.445 191.152 216.169 190.932 216.905 190.812L216.259 186.864C215.169 187.042 214.103 187.367 213.087 187.832L214.749 191.47ZM214.582 182.104V188.838H218.582V182.104H214.582ZM207.845 184.104H216.582V180.104H207.845V184.104ZM203.445 179.705C203.445 182.134 205.415 184.104 207.845 184.104V180.104C207.624 180.104 207.445 179.925 207.445 179.705H203.445ZM207.845 175.305C205.415 175.305 203.445 177.275 203.445 179.705H207.445C207.445 179.484 207.624 179.305 207.845 179.305V175.305ZM209.753 175.305H207.845V179.305H209.753V175.305ZM206.455 172.473C206.455 174.596 207.026 176.592 208.024 178.31L211.482 176.3C210.83 175.177 210.455 173.871 210.455 172.473H206.455ZM206.455 166.839V172.473H210.455V166.839H206.455ZM225.912 169.906H210.261V173.906H225.912V169.906ZM227.912 177.005V171.906H223.912V177.005H227.912ZM210.261 179.005H225.912V175.005H210.261V179.005ZM208.261 171.906V177.005H212.261V171.906H208.261Z" fill="#6A5D7B" mask="url(#path-8-outside-2_41_369)"/>
<mask id="path-10-outside-3_41_369" maskUnits="userSpaceOnUse" x="37" y="155" width="30" height="48" fill="black">
<rect fill="white" x="37" y="155" width="30" height="48"/>
<path fill-rule="evenodd" clip-rule="evenodd" d="M42.0099 166.632C42.0099 161.312 46.3221 157 51.6414 157C56.9608 157 61.273 161.312 61.273 166.632V172.265C61.273 174.026 60.8003 175.677 59.9749 177.097H61.8832C63.2084 177.097 64.2828 178.172 64.2828 179.497C64.2828 180.822 63.2084 181.897 61.8831 181.897H53.4473V188.63C54.3601 188.78 55.2549 189.052 56.1113 189.443C57.4807 190.069 58.7249 190.986 59.773 192.142C60.8211 193.298 61.6525 194.67 62.2197 196.18C62.6637 197.362 62.9391 198.611 63.0377 199.882C63.0832 200.467 62.603 200.944 62.0159 200.944C61.4288 200.944 60.9582 200.467 60.9022 199.883C60.81 198.92 60.5927 197.975 60.2556 197.077C59.7952 195.852 59.1204 194.738 58.2697 193.8C57.419 192.861 56.4091 192.117 55.2977 191.609C54.1862 191.102 52.995 190.84 51.7919 190.84C50.5889 190.84 49.3976 191.102 48.2861 191.609C47.1747 192.117 46.1648 192.861 45.3141 193.8C44.4634 194.738 43.7886 195.852 43.3282 197.077C42.9911 197.975 42.7738 198.92 42.6816 199.883C42.6256 200.467 42.155 200.944 41.5679 200.944C40.9809 200.944 40.5006 200.467 40.5461 199.882C40.6447 198.611 40.9201 197.362 41.3641 196.18C41.9313 194.67 42.7627 193.298 43.8108 192.142C44.8589 190.986 46.1032 190.069 47.4726 189.443C48.3289 189.052 49.2237 188.78 50.1365 188.63V181.897H41.3997C40.0744 181.897 39 180.822 39 179.497C39 178.172 40.0744 177.097 41.3997 177.097H43.3079C42.4825 175.677 42.0099 174.026 42.0099 172.265V166.632ZM43.8158 171.698H59.4671V176.797H43.8158V171.698Z"/>
</mask>
<path fill-rule="evenodd" clip-rule="evenodd" d="M42.0099 166.632C42.0099 161.312 46.3221 157 51.6414 157C56.9608 157 61.273 161.312 61.273 166.632V172.265C61.273 174.026 60.8003 175.677 59.9749 177.097H61.8832C63.2084 177.097 64.2828 178.172 64.2828 179.497C64.2828 180.822 63.2084 181.897 61.8831 181.897H53.4473V188.63C54.3601 188.78 55.2549 189.052 56.1113 189.443C57.4807 190.069 58.7249 190.986 59.773 192.142C60.8211 193.298 61.6525 194.67 62.2197 196.18C62.6637 197.362 62.9391 198.611 63.0377 199.882C63.0832 200.467 62.603 200.944 62.0159 200.944C61.4288 200.944 60.9582 200.467 60.9022 199.883C60.81 198.92 60.5927 197.975 60.2556 197.077C59.7952 195.852 59.1204 194.738 58.2697 193.8C57.419 192.861 56.4091 192.117 55.2977 191.609C54.1862 191.102 52.995 190.84 51.7919 190.84C50.5889 190.84 49.3976 191.102 48.2861 191.609C47.1747 192.117 46.1648 192.861 45.3141 193.8C44.4634 194.738 43.7886 195.852 43.3282 197.077C42.9911 197.975 42.7738 198.92 42.6816 199.883C42.6256 200.467 42.155 200.944 41.5679 200.944C40.9809 200.944 40.5006 200.467 40.5461 199.882C40.6447 198.611 40.9201 197.362 41.3641 196.18C41.9313 194.67 42.7627 193.298 43.8108 192.142C44.8589 190.986 46.1032 190.069 47.4726 189.443C48.3289 189.052 49.2237 188.78 50.1365 188.63V181.897H41.3997C40.0744 181.897 39 180.822 39 179.497C39 178.172 40.0744 177.097 41.3997 177.097H43.3079C42.4825 175.677 42.0099 174.026 42.0099 172.265V166.632ZM43.8158 171.698H59.4671V176.797H43.8158V171.698Z" fill="#C5BDD6"/>
<path d="M59.9749 177.097L58.2457 176.092L56.4995 179.097H59.9749V177.097ZM53.4473 181.897V179.897H51.4473V181.897H53.4473ZM53.4473 188.63H51.4473V190.33L53.1246 190.604L53.4473 188.63ZM56.1113 189.443L56.9423 187.624H56.9423L56.1113 189.443ZM59.773 192.142L58.2914 193.485H58.2914L59.773 192.142ZM62.2197 196.18L64.092 195.477L62.2197 196.18ZM63.0377 199.882L61.0437 200.037L61.0437 200.037L63.0377 199.882ZM62.0159 200.944L62.0159 198.944H62.0159V200.944ZM60.9022 199.883L62.8931 199.692V199.692L60.9022 199.883ZM60.2556 197.077L62.1279 196.374L62.1279 196.374L60.2556 197.077ZM58.2697 193.8L56.7881 195.143H56.7881L58.2697 193.8ZM55.2977 191.609L54.4666 193.429H54.4666L55.2977 191.609ZM45.3141 193.8L43.8325 192.456L43.8325 192.456L45.3141 193.8ZM43.3282 197.077L41.4559 196.374H41.4559L43.3282 197.077ZM42.6816 199.883L40.6907 199.692L42.6816 199.883ZM41.5679 200.944L41.5679 198.944H41.5679V200.944ZM40.5461 199.882L42.5401 200.037V200.037L40.5461 199.882ZM41.3641 196.18L43.2364 196.883L41.3641 196.18ZM43.8108 192.142L42.3292 190.798H42.3292L43.8108 192.142ZM47.4726 189.443L46.6415 187.624H46.6415L47.4726 189.443ZM50.1365 188.63L50.4593 190.604L52.1365 190.33V188.63H50.1365ZM50.1365 181.897H52.1365V179.897H50.1365V181.897ZM43.3079 177.097V179.097H46.7833L45.0372 176.092L43.3079 177.097ZM59.4671 171.698H61.4671V169.698H59.4671V171.698ZM43.8158 171.698V169.698H41.8158V171.698H43.8158ZM59.4671 176.797V178.797H61.4671V176.797H59.4671ZM43.8158 176.797H41.8158V178.797H43.8158V176.797ZM51.6414 155C45.2175 155 40.0099 160.208 40.0099 166.632H44.0099C44.0099 162.417 47.4266 159 51.6414 159V155ZM63.273 166.632C63.273 160.208 58.0654 155 51.6414 155V159C55.8562 159 59.273 162.417 59.273 166.632H63.273ZM63.273 172.265V166.632H59.273V172.265H63.273ZM61.7041 178.102C62.7021 176.385 63.273 174.389 63.273 172.265H59.273C59.273 173.664 58.8985 174.969 58.2457 176.092L61.7041 178.102ZM61.8832 175.097H59.9749V179.097H61.8832V175.097ZM66.2828 179.497C66.2828 177.067 64.313 175.097 61.8832 175.097V179.097C62.1039 179.097 62.2828 179.276 62.2828 179.497H66.2828ZM61.8831 183.897C64.313 183.897 66.2828 181.927 66.2828 179.497H62.2828C62.2828 179.718 62.1039 179.897 61.8831 179.897V183.897ZM53.4473 183.897H61.8831V179.897H53.4473V183.897ZM55.4473 188.63V181.897H51.4473V188.63H55.4473ZM53.1246 190.604C53.8598 190.724 54.5838 190.944 55.2802 191.262L56.9423 187.624C55.926 187.16 54.8604 186.835 53.7701 186.656L53.1246 190.604ZM55.2802 191.262C56.3937 191.771 57.4188 192.523 58.2914 193.485L61.2547 190.798C60.031 189.449 58.5676 188.367 56.9423 187.624L55.2802 191.262ZM58.2914 193.485C59.1643 194.448 59.8658 195.601 60.3474 196.883L64.092 195.477C63.4392 193.739 62.4779 192.147 61.2546 190.798L58.2914 193.485ZM60.3474 196.883C60.7243 197.887 60.9594 198.951 61.0437 200.037L65.0317 199.727C64.9187 198.271 64.6032 196.838 64.092 195.477L60.3474 196.883ZM61.0437 200.037C60.9909 199.357 61.5436 198.944 62.0159 198.944L62.0159 202.944C63.6623 202.944 65.1754 201.578 65.0317 199.727L61.0437 200.037ZM62.0159 198.944C62.5764 198.944 62.8624 199.371 62.8931 199.692L58.9113 200.073C59.054 201.563 60.2813 202.944 62.0159 202.944V198.944ZM62.8931 199.692C62.7844 198.556 62.5278 197.439 62.1279 196.374L58.3833 197.781C58.6576 198.511 58.8357 199.283 58.9113 200.073L62.8931 199.692ZM62.1279 196.374C61.5819 194.92 60.7772 193.588 59.7514 192.456L56.7881 195.143C57.4636 195.888 58.0085 196.783 58.3833 197.781L62.1279 196.374ZM59.7514 192.456C58.7251 191.324 57.4961 190.415 56.1287 189.79L54.4666 193.429C55.3222 193.819 56.113 194.398 56.7881 195.143L59.7514 192.456ZM56.1287 189.79C54.7607 189.165 53.2864 188.84 51.7919 188.84V192.84C52.7036 192.84 53.6118 193.038 54.4666 193.429L56.1287 189.79ZM51.7919 188.84C50.2975 188.84 48.8232 189.165 47.4551 189.79L49.1172 193.429C49.972 193.038 50.8803 192.84 51.7919 192.84V188.84ZM47.4551 189.79C46.0877 190.415 44.8587 191.324 43.8325 192.456L46.7957 195.143C47.4709 194.398 48.2617 193.819 49.1172 193.429L47.4551 189.79ZM43.8325 192.456C42.8066 193.588 42.0019 194.92 41.4559 196.374L45.2006 197.781C45.5753 196.783 46.1203 195.888 46.7957 195.143L43.8325 192.456ZM41.4559 196.374C41.056 197.439 40.7995 198.556 40.6907 199.692L44.6725 200.073C44.7481 199.283 44.9262 198.511 45.2006 197.781L41.4559 196.374ZM40.6907 199.692C40.7214 199.371 41.0074 198.944 41.5679 198.944L41.5679 202.944C43.3026 202.944 44.5298 201.563 44.6725 200.073L40.6907 199.692ZM41.5679 198.944C42.0402 198.944 42.5929 199.357 42.5401 200.037L38.5521 199.727C38.4084 201.578 39.9215 202.944 41.5679 202.944V198.944ZM42.5401 200.037C42.6244 198.951 42.8595 197.887 43.2364 196.883L39.4918 195.477C38.9807 196.838 38.6651 198.271 38.5521 199.727L42.5401 200.037ZM43.2364 196.883C43.718 195.601 44.4196 194.448 45.2925 193.485L42.3292 190.798C41.1059 192.147 40.1446 193.739 39.4918 195.477L43.2364 196.883ZM45.2925 193.485C46.165 192.523 47.1902 191.771 48.3036 191.262L46.6415 187.624C45.0162 188.367 43.5528 189.449 42.3292 190.798L45.2925 193.485ZM48.3036 191.262C49 190.944 49.724 190.724 50.4593 190.604L49.8137 186.656C48.7235 186.835 47.6579 187.16 46.6415 187.624L48.3036 191.262ZM48.1365 181.897V188.63H52.1365V181.897H48.1365ZM41.3997 183.897H50.1365V179.897H41.3997V183.897ZM37 179.497C37 181.927 38.9698 183.897 41.3997 183.897V179.897C41.1789 179.897 41 179.718 41 179.497H37ZM41.3997 175.097C38.9698 175.097 37 177.067 37 179.497H41C41 179.276 41.1789 179.097 41.3997 179.097V175.097ZM43.3079 175.097H41.3997V179.097H43.3079V175.097ZM40.0099 172.265C40.0099 174.389 40.5807 176.385 41.5787 178.102L45.0372 176.092C44.3843 174.969 44.0099 173.664 44.0099 172.265H40.0099ZM40.0099 166.632V172.265H44.0099V166.632H40.0099ZM59.4671 169.698H43.8158V173.698H59.4671V169.698ZM61.4671 176.797V171.698H57.4671V176.797H61.4671ZM43.8158 178.797H59.4671V174.797H43.8158V178.797ZM41.8158 171.698V176.797H45.8158V171.698H41.8158Z" fill="#6A5D7B" mask="url(#path-10-outside-3_41_369)"/>
<mask id="path-12-outside-4_41_369" maskUnits="userSpaceOnUse" x="64.6907" y="155" width="30" height="48" fill="black">
<rect fill="white" x="64.6907" y="155" width="30" height="48"/>
<path fill-rule="evenodd" clip-rule="evenodd" d="M69.7005 166.632C69.7005 161.312 74.0127 157 79.3321 157C84.6515 157 88.9636 161.312 88.9636 166.632V172.265C88.9636 174.026 88.491 175.677 87.6656 177.097H89.5738C90.8991 177.097 91.9735 178.172 91.9735 179.497C91.9735 180.822 90.8991 181.897 89.5738 181.897H81.138V188.63C82.0508 188.78 82.9456 189.052 83.8019 189.443C85.1713 190.069 86.4156 190.986 87.4637 192.142C88.5118 193.298 89.3432 194.67 89.9104 196.18C90.3544 197.362 90.6298 198.611 90.7284 199.882C90.7738 200.467 90.2936 200.944 89.7066 200.944C89.1195 200.944 88.6489 200.467 88.5929 199.883C88.5007 198.92 88.2834 197.975 87.9463 197.077C87.4859 195.852 86.8111 194.738 85.9604 193.8C85.1097 192.861 84.0998 192.117 82.9884 191.609C81.8769 191.102 80.6856 190.84 79.4826 190.84C78.2795 190.84 77.0883 191.102 75.9768 191.609C74.8654 192.117 73.8555 192.861 73.0048 193.8C72.1541 194.738 71.4793 195.852 71.0189 197.077C70.6818 197.975 70.4645 198.92 70.3723 199.883C70.3163 200.467 69.8457 200.944 69.2586 200.944C68.6715 200.944 68.1913 200.467 68.2368 199.882C68.3354 198.611 68.6108 197.362 69.0548 196.18C69.622 194.67 70.4534 193.298 71.5015 192.142C72.5496 190.986 73.7939 190.069 75.1633 189.443C76.0196 189.052 76.9144 188.78 77.8272 188.63V181.897H69.0903C67.765 181.897 66.6907 180.822 66.6907 179.497C66.6907 178.172 67.765 177.097 69.0903 177.097H70.9986C70.1732 175.677 69.7005 174.026 69.7005 172.265V166.632ZM71.5065 171.698H87.1578V176.797H71.5065V171.698Z"/>
</mask>
<path fill-rule="evenodd" clip-rule="evenodd" d="M69.7005 166.632C69.7005 161.312 74.0127 157 79.3321 157C84.6515 157 88.9636 161.312 88.9636 166.632V172.265C88.9636 174.026 88.491 175.677 87.6656 177.097H89.5738C90.8991 177.097 91.9735 178.172 91.9735 179.497C91.9735 180.822 90.8991 181.897 89.5738 181.897H81.138V188.63C82.0508 188.78 82.9456 189.052 83.8019 189.443C85.1713 190.069 86.4156 190.986 87.4637 192.142C88.5118 193.298 89.3432 194.67 89.9104 196.18C90.3544 197.362 90.6298 198.611 90.7284 199.882C90.7738 200.467 90.2936 200.944 89.7066 200.944C89.1195 200.944 88.6489 200.467 88.5929 199.883C88.5007 198.92 88.2834 197.975 87.9463 197.077C87.4859 195.852 86.8111 194.738 85.9604 193.8C85.1097 192.861 84.0998 192.117 82.9884 191.609C81.8769 191.102 80.6856 190.84 79.4826 190.84C78.2795 190.84 77.0883 191.102 75.9768 191.609C74.8654 192.117 73.8555 192.861 73.0048 193.8C72.1541 194.738 71.4793 195.852 71.0189 197.077C70.6818 197.975 70.4645 198.92 70.3723 199.883C70.3163 200.467 69.8457 200.944 69.2586 200.944C68.6715 200.944 68.1913 200.467 68.2368 199.882C68.3354 198.611 68.6108 197.362 69.0548 196.18C69.622 194.67 70.4534 193.298 71.5015 192.142C72.5496 190.986 73.7939 190.069 75.1633 189.443C76.0196 189.052 76.9144 188.78 77.8272 188.63V181.897H69.0903C67.765 181.897 66.6907 180.822 66.6907 179.497C66.6907 178.172 67.765 177.097 69.0903 177.097H70.9986C70.1732 175.677 69.7005 174.026 69.7005 172.265V166.632ZM71.5065 171.698H87.1578V176.797H71.5065V171.698Z" fill="#C5BDD6"/>
<path d="M87.6656 177.097L85.9364 176.092L84.1902 179.097H87.6656V177.097ZM81.138 181.897V179.897H79.138V181.897H81.138ZM81.138 188.63H79.138V190.33L80.8152 190.604L81.138 188.63ZM83.8019 189.443L82.9709 191.262H82.9709L83.8019 189.443ZM87.4637 192.142L85.982 193.485H85.982L87.4637 192.142ZM89.9104 196.18L91.7827 195.477L89.9104 196.18ZM90.7284 199.882L88.7344 200.037L88.7344 200.037L90.7284 199.882ZM89.7066 200.944L89.7066 198.944H89.7066V200.944ZM88.5929 199.883L86.602 200.073L88.5929 199.883ZM87.9463 197.077L86.0739 197.781H86.0739L87.9463 197.077ZM85.9604 193.8L84.4788 195.143H84.4788L85.9604 193.8ZM82.9884 191.609L82.1573 193.429H82.1573L82.9884 191.609ZM73.0048 193.8L71.5231 192.456L71.5231 192.456L73.0048 193.8ZM71.0189 197.077L72.8912 197.781L71.0189 197.077ZM70.3723 199.883L68.3814 199.692L70.3723 199.883ZM69.2586 200.944L69.2586 198.944H69.2586V200.944ZM68.2368 199.882L70.2308 200.037V200.037L68.2368 199.882ZM69.0548 196.18L70.9271 196.883H70.9271L69.0548 196.18ZM71.5015 192.142L70.0199 190.798H70.0199L71.5015 192.142ZM75.1633 189.443L74.3322 187.624H74.3322L75.1633 189.443ZM77.8272 188.63L78.1499 190.604L79.8272 190.33V188.63H77.8272ZM77.8272 181.897H79.8272V179.897H77.8272V181.897ZM70.9986 177.097V179.097H74.474L72.7278 176.092L70.9986 177.097ZM87.1578 171.698H89.1578V169.698H87.1578V171.698ZM71.5065 171.698V169.698H69.5065V171.698H71.5065ZM87.1578 176.797V178.797H89.1578V176.797H87.1578ZM71.5065 176.797H69.5065V178.797H71.5065V176.797ZM79.3321 155C72.9082 155 67.7005 160.208 67.7005 166.632H71.7005C71.7005 162.417 75.1173 159 79.3321 159V155ZM90.9636 166.632C90.9636 160.208 85.756 155 79.3321 155V159C83.5469 159 86.9636 162.417 86.9636 166.632H90.9636ZM90.9636 172.265V166.632H86.9636V172.265H90.9636ZM89.3948 178.102C90.3928 176.385 90.9636 174.389 90.9636 172.265H86.9636C86.9636 173.664 86.5892 174.969 85.9364 176.092L89.3948 178.102ZM89.5738 175.097H87.6656V179.097H89.5738V175.097ZM93.9735 179.497C93.9735 177.067 92.0037 175.097 89.5738 175.097V179.097C89.7945 179.097 89.9735 179.276 89.9735 179.497H93.9735ZM89.5738 183.897C92.0037 183.897 93.9735 181.927 93.9735 179.497H89.9735C89.9735 179.718 89.7945 179.897 89.5738 179.897V183.897ZM81.138 183.897H89.5738V179.897H81.138V183.897ZM83.138 188.63V181.897H79.138V188.63H83.138ZM80.8152 190.604C81.5505 190.724 82.2745 190.944 82.9709 191.262L84.633 187.624C83.6166 187.16 82.551 186.835 81.4608 186.656L80.8152 190.604ZM82.9709 191.262C84.0844 191.771 85.1095 192.523 85.982 193.485L88.9453 190.798C87.7217 189.449 86.2583 188.367 84.633 187.624L82.9709 191.262ZM85.982 193.485C86.8549 194.448 87.5565 195.601 88.0381 196.883L91.7827 195.477C91.1299 193.739 90.1686 192.147 88.9453 190.798L85.982 193.485ZM88.0381 196.883C88.415 197.887 88.6501 198.951 88.7344 200.037L92.7224 199.727C92.6094 198.271 92.2938 196.838 91.7827 195.477L88.0381 196.883ZM88.7344 200.037C88.6816 199.357 89.2343 198.944 89.7066 198.944L89.7066 202.944C91.353 202.944 92.8661 201.578 92.7224 199.727L88.7344 200.037ZM89.7066 198.944C90.2671 198.944 90.553 199.371 90.5838 199.692L86.602 200.073C86.7447 201.563 87.9719 202.944 89.7066 202.944V198.944ZM90.5838 199.692C90.475 198.556 90.2185 197.439 89.8186 196.374L86.0739 197.781C86.3483 198.511 86.5264 199.283 86.602 200.073L90.5838 199.692ZM89.8186 196.374C89.2726 194.92 88.4679 193.588 87.442 192.456L84.4788 195.143C85.1542 195.888 85.6992 196.783 86.0739 197.781L89.8186 196.374ZM87.442 192.456C86.4158 191.324 85.1868 190.415 83.8194 189.79L82.1573 193.429C83.0128 193.819 83.8036 194.398 84.4788 195.143L87.442 192.456ZM83.8194 189.79C82.4513 189.165 80.977 188.84 79.4826 188.84V192.84C80.3942 192.84 81.3025 193.038 82.1573 193.429L83.8194 189.79ZM79.4826 188.84C77.9882 188.84 76.5139 189.165 75.1458 189.79L76.8079 193.429C77.6627 193.038 78.5709 192.84 79.4826 192.84V188.84ZM75.1458 189.79C73.7784 190.415 72.5494 191.324 71.5231 192.456L74.4864 195.143C75.1615 194.398 75.9523 193.819 76.8079 193.429L75.1458 189.79ZM71.5231 192.456C70.4973 193.588 69.6926 194.92 69.1466 196.374L72.8912 197.781C73.266 196.783 73.8109 195.888 74.4864 195.143L71.5231 192.456ZM69.1466 196.374C68.7467 197.439 68.4901 198.556 68.3814 199.692L72.3632 200.073C72.4388 199.283 72.6169 198.511 72.8912 197.781L69.1466 196.374ZM68.3814 199.692C68.4121 199.371 68.6981 198.944 69.2586 198.944L69.2586 202.944C70.9932 202.944 72.2205 201.563 72.3632 200.073L68.3814 199.692ZM69.2586 198.944C69.7309 198.944 70.2836 199.357 70.2308 200.037L66.2428 199.727C66.0991 201.578 67.6122 202.944 69.2586 202.944V198.944ZM70.2308 200.037C70.3151 198.951 70.5502 197.887 70.9271 196.883L67.1825 195.477C66.6713 196.838 66.3558 198.271 66.2428 199.727L70.2308 200.037ZM70.9271 196.883C71.4087 195.601 72.1102 194.448 72.9831 193.485L70.0199 190.798C68.7966 192.147 67.8353 193.739 67.1825 195.477L70.9271 196.883ZM72.9831 193.485C73.8557 192.523 74.8808 191.771 75.9943 191.262L74.3322 187.624C72.7069 188.367 71.2435 189.449 70.0199 190.798L72.9831 193.485ZM75.9943 191.262C76.6907 190.944 77.4147 190.724 78.1499 190.604L77.5044 186.656C76.4141 186.835 75.3485 187.16 74.3322 187.624L75.9943 191.262ZM75.8272 181.897V188.63H79.8272V181.897H75.8272ZM69.0903 183.897H77.8272V179.897H69.0903V183.897ZM64.6907 179.497C64.6907 181.927 66.6605 183.897 69.0903 183.897V179.897C68.8696 179.897 68.6907 179.718 68.6907 179.497H64.6907ZM69.0903 175.097C66.6605 175.097 64.6907 177.067 64.6907 179.497H68.6907C68.6907 179.276 68.8696 179.097 69.0903 179.097V175.097ZM70.9986 175.097H69.0903V179.097H70.9986V175.097ZM67.7005 172.265C67.7005 174.389 68.2714 176.385 69.2694 178.102L72.7278 176.092C72.075 174.969 71.7005 173.664 71.7005 172.265H67.7005ZM67.7005 166.632V172.265H71.7005V166.632H67.7005ZM87.1578 169.698H71.5065V173.698H87.1578V169.698ZM89.1578 176.797V171.698H85.1578V176.797H89.1578ZM71.5065 178.797H87.1578V174.797H71.5065V178.797ZM69.5065 171.698V176.797H73.5065V171.698H69.5065Z" fill="#6A5D7B" mask="url(#path-12-outside-4_41_369)"/>
<path d="M137.44 144.781C137.003 144.542 136.901 143.953 137.262 143.611C139.68 141.322 142.885 139.418 145.894 137.976C146.321 137.772 146.842 138.076 146.908 138.546V138.546C147.243 141.34 147.047 144.33 146.437 147.152C146.148 148.494 144.561 149.006 143.403 148.268C142.294 147.562 141.155 146.903 140.009 146.25C139.157 145.764 138.268 145.304 137.44 144.781V144.781Z" fill="#4A3E5C"/>
<path d="M136.012 144.902C136.488 144.388 137.217 144.239 137.81 144.612C138.041 144.757 138.265 144.906 138.465 145.022C140.475 146.194 142.455 147.414 144.407 148.682C145.162 149.172 145.491 150.115 145.17 150.957C143.375 155.665 140.582 159.905 137.407 163.792C137.253 163.982 136.96 164.006 136.758 163.869V163.869C135.151 162.838 133.063 161.446 131.04 160.388C129.713 159.694 129.039 157.646 129.722 156.313C129.779 156.201 129.836 156.092 129.893 155.986C130.158 155.489 131.271 153.53 131.08 153.081V153.081C130.939 152.751 130.679 152.44 130.842 152.12C131.904 150.032 134.279 146.772 136.012 144.902Z" fill="#4A3E5C"/>
<path d="M140.673 159.403C141.053 158.859 141.803 158.848 142.064 159.459C142.256 159.91 142.415 160.381 142.5 160.718C142.574 161.016 142.6 161.261 142.504 161.556C142.297 162.19 141.917 162.794 141.589 163.371C140.88 164.619 140.127 165.831 139.358 167.041C138.423 168.515 137.507 170.002 136.612 171.501C136.579 171.563 136.545 171.626 136.508 171.686C136.468 171.751 136.426 171.809 136.377 171.857C136.246 171.988 136.005 171.931 135.993 171.746V171.746C135.96 171.257 136.231 170.527 136.344 170.035C136.593 168.92 136.828 167.803 137.049 166.682C137.223 165.824 137.5 164.871 137.515 163.976C137.519 163.754 137.574 163.534 137.702 163.353C138.189 162.666 138.73 162.018 139.242 161.351C139.734 160.713 140.211 160.064 140.673 159.403Z" fill="#4A3E5C"/>
<path d="M122.552 163.943C122.462 164.013 122.374 164.087 122.295 164.169V164.169C122.203 164.265 122.128 164.318 122.015 164.336C121.964 164.343 121.916 164.315 121.89 164.27V164.27C121.877 164.248 121.87 164.222 121.872 164.196C121.881 164.025 121.925 163.875 121.987 163.713C122.201 163.16 122.503 162.617 122.753 162.076C123.364 160.725 124 159.385 124.66 158.057C125.327 156.702 125.955 155.202 126.779 153.938C127.126 153.406 127.521 152.979 128.175 152.848C128.763 152.73 130.228 152.523 131.022 152.709C131.263 152.765 131.402 152.982 131.298 153.207V153.207C130.7 154.579 129.577 156.765 128.699 157.968C128.309 158.503 123.516 163.192 122.552 163.943Z" fill="#4A3E5C"/>
<path d="M128.332 159.527C128.413 159.216 128.726 159.037 129.027 159.147C130.868 159.818 134.956 162.131 136.611 163.361C136.94 163.605 136.985 164.047 136.718 164.358V164.358V164.358C136.579 164.5 136.366 164.512 136.187 164.426C135.349 164.026 133.469 162.783 132.781 162.399C131.415 161.638 130.016 160.947 128.638 160.212C128.39 160.08 128.261 159.798 128.332 159.527V159.527Z" fill="#4A3E5C"/>
<path d="M127.659 160.794V160.794C127.773 160.562 128.053 160.466 128.285 160.58C130.18 161.518 132.043 162.513 133.875 163.564C134.675 164.027 135.438 164.431 136.177 164.977C136.227 165.014 136.256 165.073 136.256 165.136V165.136V165.136C136.25 165.239 136.216 165.34 136.155 165.424C136.148 165.433 136.141 165.443 136.134 165.452C135.925 165.733 135.532 165.795 135.23 165.617C132.855 164.218 130.398 162.971 127.971 161.664C127.657 161.494 127.524 161.125 127.659 160.794V160.794Z" fill="#4A3E5C"/>
<path d="M128.222 160.679C128.111 160.623 128.065 160.489 128.119 160.378V160.378C128.174 160.266 128.309 160.219 128.421 160.275C130.306 161.204 132.158 162.192 133.979 163.239C134.762 163.693 135.587 164.134 136.31 164.677C136.33 164.692 136.344 164.714 136.348 164.739V164.739C136.353 164.768 136.344 164.798 136.323 164.82L136.294 164.853C136.266 164.883 136.229 164.903 136.189 164.911C136.06 164.936 135.932 164.958 135.808 164.903C134.775 164.444 133.798 163.727 132.82 163.156C131.328 162.284 129.771 161.453 128.222 160.679Z" fill="#4A3E5C"/>
<path d="M136.217 145.298C136.691 144.783 137.416 144.639 138.007 145.013C138.2 145.136 138.386 145.257 138.554 145.355C140.398 146.428 142.216 147.544 144.007 148.703C144.764 149.194 145.094 150.138 144.769 150.979C143.094 155.321 140.506 159.234 137.568 162.824C137.424 163.001 137.151 163.023 136.962 162.896V162.896C135.517 161.97 133.655 160.733 131.832 159.763C130.508 159.058 129.81 156.985 130.508 155.658C130.526 155.624 130.543 155.592 130.56 155.559C130.807 155.097 131.845 153.273 131.667 152.856V152.856C131.536 152.548 131.294 152.259 131.446 151.961C132.426 150.037 134.605 147.047 136.217 145.298Z" fill="#8A7F9E"/>
<path d="M138.282 148.699C138.334 148.691 138.386 148.685 138.437 148.68C138.489 148.675 138.541 148.672 138.593 148.669C138.645 148.667 138.697 148.666 138.749 148.666C138.801 148.666 138.853 148.668 138.905 148.671C138.957 148.673 139.009 148.677 139.061 148.683C139.113 148.688 139.164 148.695 139.216 148.703C139.267 148.71 139.319 148.719 139.37 148.73C139.421 148.74 139.471 148.752 139.522 148.765C139.572 148.778 139.622 148.792 139.672 148.807C139.722 148.822 139.771 148.839 139.82 148.857C139.869 148.875 139.917 148.893 139.965 148.914C140.013 148.934 140.061 148.955 140.108 148.978C140.155 149 140.201 149.024 140.247 149.049C140.293 149.073 140.338 149.099 140.382 149.126C140.427 149.153 140.471 149.181 140.514 149.21C140.557 149.24 140.6 149.27 140.641 149.301C140.683 149.332 140.724 149.364 140.764 149.398C140.804 149.431 140.843 149.465 140.881 149.5C140.92 149.535 140.957 149.572 140.994 149.609C141.031 149.646 141.066 149.683 141.101 149.722C141.136 149.761 141.169 149.801 141.202 149.841C141.235 149.882 141.267 149.923 141.298 149.965C141.328 150.007 141.358 150.049 141.387 150.093C141.415 150.136 141.443 150.181 141.469 150.225C141.496 150.27 141.521 150.316 141.546 150.362C141.57 150.408 141.593 150.454 141.615 150.502C141.637 150.549 141.658 150.596 141.677 150.645C141.697 150.693 141.715 150.742 141.733 150.791C141.75 150.84 141.766 150.889 141.781 150.939C141.795 150.989 141.809 151.039 141.821 151.09C141.834 151.141 141.845 151.192 141.854 151.243C141.864 151.294 141.873 151.345 141.88 151.397C141.887 151.448 141.893 151.5 141.898 151.552C141.903 151.604 141.906 151.656 141.908 151.708C141.911 151.76 141.912 151.812 141.911 151.864C141.911 151.916 141.909 151.968 141.906 152.02C141.903 152.072 141.899 152.124 141.894 152.175C141.888 152.227 141.881 152.279 141.873 152.33C141.865 152.382 141.856 152.433 141.846 152.484C141.835 152.535 141.823 152.586 141.81 152.636C141.797 152.686 141.783 152.736 141.767 152.786C141.752 152.836 141.735 152.885 141.717 152.934C141.699 152.983 141.68 153.031 141.66 153.079C141.64 153.127 141.618 153.175 141.595 153.221C141.573 153.268 141.549 153.315 141.524 153.36C141.499 153.406 141.473 153.451 141.446 153.496C141.419 153.54 141.391 153.584 141.361 153.627C141.332 153.67 141.302 153.712 141.27 153.754C141.239 153.795 141.207 153.836 141.173 153.876C141.14 153.916 141.106 153.955 141.07 153.993C141.035 154.032 140.999 154.069 140.962 154.105C140.925 154.142 140.887 154.177 140.848 154.212C140.809 154.247 140.769 154.28 140.729 154.313C140.688 154.346 140.647 154.377 140.605 154.408C140.563 154.439 140.52 154.468 140.476 154.497C140.433 154.525 140.388 154.553 140.344 154.579C140.299 154.605 140.253 154.631 140.207 154.655C140.161 154.679 140.114 154.702 140.067 154.724C140.02 154.745 139.972 154.766 139.923 154.786C139.875 154.805 139.826 154.823 139.777 154.84C139.728 154.857 139.679 154.873 139.628 154.888C139.579 154.903 139.528 154.916 139.478 154.928C139.427 154.94 139.376 154.951 139.325 154.961C139.274 154.97 139.222 154.979 139.171 154.986C139.12 154.993 139.068 154.999 139.016 155.004C138.965 155.008 138.913 155.011 138.861 155.013C138.809 155.015 138.758 155.016 138.706 155.016C138.654 155.015 138.602 155.013 138.55 155.01C138.499 155.007 138.447 155.003 138.395 154.997C138.344 154.992 138.292 154.985 138.241 154.977C138.19 154.969 138.139 154.96 138.088 154.949C138.037 154.938 137.987 154.927 137.937 154.913C137.887 154.9 137.837 154.886 137.787 154.871C137.738 154.855 137.689 154.838 137.64 154.82C137.591 154.803 137.543 154.784 137.495 154.763C137.448 154.743 137.4 154.721 137.354 154.699C137.307 154.676 137.261 154.653 137.216 154.628C137.17 154.603 137.125 154.577 137.081 154.55C137.037 154.523 136.993 154.495 136.95 154.466C136.907 154.436 136.865 154.406 136.824 154.375C136.782 154.344 136.742 154.312 136.702 154.278C136.662 154.245 136.623 154.211 136.585 154.176C136.547 154.141 136.51 154.105 136.473 154.068C136.437 154.031 136.402 153.993 136.367 153.954C136.332 153.915 136.299 153.876 136.266 153.836C136.234 153.795 136.202 153.754 136.172 153.712C136.141 153.67 136.112 153.628 136.083 153.584C136.055 153.541 136.027 153.497 136.001 153.452C135.975 153.408 135.949 153.362 135.925 153.316C135.901 153.27 135.878 153.224 135.856 153.177C135.835 153.13 135.814 153.082 135.794 153.034C135.775 152.986 135.757 152.938 135.74 152.889C135.722 152.84 135.707 152.791 135.692 152.741C135.677 152.691 135.664 152.641 135.651 152.591C135.639 152.54 135.628 152.49 135.618 152.439C135.609 152.388 135.6 152.337 135.593 152.285C135.586 152.234 135.58 152.182 135.575 152.131C135.57 152.079 135.567 152.027 135.564 151.976C135.562 151.924 135.561 151.872 135.562 151.82C135.562 151.768 135.564 151.716 135.567 151.665C135.569 151.613 135.574 151.561 135.579 151.51C135.584 151.458 135.591 151.407 135.599 151.355C135.607 151.304 135.616 151.253 135.627 151.202C135.637 151.152 135.649 151.101 135.662 151.051C135.674 151.001 135.689 150.951 135.704 150.901C135.719 150.852 135.736 150.803 135.754 150.754C135.771 150.705 135.79 150.657 135.81 150.609C135.831 150.561 135.852 150.514 135.874 150.467C135.897 150.421 135.92 150.374 135.945 150.329C135.97 150.283 135.995 150.238 136.022 150.194C136.049 150.15 136.077 150.106 136.106 150.063C136.135 150.02 136.165 149.978 136.196 149.936C136.228 149.895 136.26 149.854 136.293 149.814C136.326 149.774 136.36 149.735 136.395 149.697C136.43 149.659 136.466 149.621 136.503 149.585C136.54 149.548 136.577 149.513 136.616 149.478C136.655 149.444 136.694 149.41 136.734 149.377C136.774 149.344 136.815 149.313 136.857 149.282C136.899 149.251 136.942 149.222 136.985 149.193C137.028 149.164 137.072 149.137 137.117 149.111C137.161 149.084 137.206 149.059 137.252 149.034C137.298 149.01 137.344 148.987 137.391 148.965C137.438 148.943 137.486 148.922 137.534 148.903C137.582 148.883 137.63 148.865 137.679 148.847C137.728 148.83 137.777 148.814 137.827 148.799C137.877 148.784 137.927 148.771 137.977 148.758C138.027 148.746 138.078 148.735 138.129 148.725C138.18 148.715 138.231 148.706 138.282 148.699Z" fill="#6A5D7B"/>
<path d="M138.615 149.264C138.657 149.262 138.698 149.261 138.74 149.261C138.782 149.262 138.824 149.263 138.866 149.265C138.908 149.267 138.949 149.27 138.991 149.274C139.033 149.278 139.074 149.283 139.116 149.29C139.157 149.296 139.198 149.303 139.239 149.311C139.281 149.319 139.321 149.328 139.362 149.338C139.403 149.349 139.443 149.36 139.483 149.372C139.523 149.384 139.563 149.397 139.602 149.411C139.642 149.425 139.681 149.44 139.72 149.456C139.758 149.472 139.797 149.489 139.834 149.507C139.872 149.525 139.91 149.543 139.947 149.563C139.984 149.583 140.02 149.603 140.056 149.625C140.092 149.646 140.128 149.668 140.162 149.692C140.197 149.715 140.232 149.739 140.265 149.763C140.299 149.788 140.332 149.814 140.365 149.84C140.397 149.867 140.429 149.894 140.46 149.922C140.491 149.95 140.522 149.979 140.552 150.008C140.581 150.038 140.61 150.068 140.639 150.099C140.667 150.13 140.694 150.161 140.721 150.193C140.748 150.226 140.774 150.258 140.799 150.292C140.824 150.325 140.848 150.359 140.872 150.394C140.895 150.429 140.918 150.464 140.94 150.5C140.962 150.536 140.983 150.572 141.003 150.609C141.023 150.645 141.042 150.683 141.06 150.72C141.078 150.758 141.095 150.796 141.112 150.835C141.128 150.873 141.143 150.912 141.158 150.952C141.172 150.991 141.186 151.03 141.198 151.07C141.211 151.11 141.222 151.151 141.233 151.191C141.243 151.232 141.253 151.272 141.261 151.313C141.27 151.354 141.278 151.396 141.284 151.437C141.291 151.478 141.296 151.52 141.301 151.561C141.305 151.603 141.309 151.645 141.311 151.687C141.314 151.728 141.315 151.77 141.316 151.812C141.316 151.854 141.316 151.896 141.314 151.938C141.313 151.979 141.31 152.021 141.306 152.063C141.303 152.105 141.298 152.146 141.293 152.188C141.287 152.229 141.28 152.271 141.273 152.312C141.265 152.353 141.256 152.394 141.247 152.435C141.237 152.475 141.227 152.516 141.215 152.556C141.203 152.596 141.191 152.636 141.177 152.676C141.164 152.716 141.149 152.755 141.134 152.794C141.118 152.833 141.102 152.871 141.084 152.909C141.067 152.947 141.049 152.985 141.03 153.022C141.011 153.059 140.99 153.096 140.97 153.133C140.948 153.169 140.927 153.204 140.904 153.24C140.881 153.275 140.858 153.309 140.833 153.343C140.809 153.378 140.784 153.411 140.758 153.444C140.732 153.477 140.705 153.509 140.677 153.54C140.65 153.572 140.621 153.603 140.592 153.633C140.563 153.663 140.533 153.692 140.503 153.721C140.472 153.75 140.441 153.777 140.409 153.805C140.377 153.832 140.345 153.858 140.312 153.884C140.279 153.909 140.245 153.934 140.21 153.958C140.176 153.982 140.141 154.005 140.106 154.027C140.07 154.049 140.034 154.071 139.998 154.091C139.961 154.112 139.924 154.131 139.887 154.15C139.849 154.169 139.811 154.186 139.773 154.203C139.735 154.22 139.696 154.236 139.657 154.251C139.618 154.266 139.578 154.28 139.538 154.293C139.499 154.306 139.458 154.318 139.418 154.329C139.378 154.34 139.337 154.35 139.296 154.359C139.255 154.368 139.214 154.376 139.173 154.383C139.132 154.39 139.09 154.397 139.049 154.402C139.007 154.407 138.966 154.411 138.924 154.414C138.895 154.416 138.867 154.417 138.839 154.419C138.81 154.42 138.782 154.42 138.754 154.421C138.725 154.421 138.697 154.42 138.669 154.42C138.64 154.419 138.612 154.418 138.584 154.416C138.555 154.414 138.527 154.412 138.499 154.41C138.471 154.407 138.442 154.404 138.414 154.4C138.386 154.397 138.358 154.393 138.33 154.388C138.302 154.384 138.274 154.379 138.246 154.374C138.218 154.368 138.191 154.362 138.163 154.356C138.135 154.35 138.108 154.343 138.08 154.336C138.053 154.329 138.025 154.321 137.998 154.313C137.971 154.305 137.944 154.296 137.917 154.287C137.89 154.278 137.864 154.269 137.837 154.259C137.81 154.249 137.784 154.239 137.758 154.228C137.731 154.217 137.705 154.206 137.68 154.194C137.654 154.183 137.628 154.171 137.603 154.158C137.577 154.146 137.552 154.133 137.527 154.119C137.502 154.106 137.477 154.092 137.452 154.078C137.428 154.064 137.403 154.05 137.379 154.035C137.355 154.02 137.331 154.004 137.308 153.989C137.284 153.973 137.261 153.957 137.237 153.94C137.214 153.924 137.192 153.907 137.169 153.89C137.146 153.873 137.124 153.855 137.102 153.837C137.08 153.819 137.059 153.801 137.037 153.782C137.016 153.763 136.995 153.744 136.974 153.725C136.954 153.706 136.933 153.686 136.913 153.666C136.893 153.646 136.873 153.625 136.854 153.605C136.835 153.584 136.815 153.563 136.797 153.542C136.778 153.52 136.76 153.499 136.742 153.477C136.724 153.455 136.706 153.432 136.689 153.41C136.672 153.387 136.655 153.365 136.638 153.342C136.622 153.319 136.606 153.295 136.59 153.272C136.574 153.248 136.559 153.224 136.544 153.2C136.529 153.176 136.514 153.152 136.5 153.127C136.486 153.102 136.472 153.078 136.459 153.052C136.446 153.027 136.433 153.002 136.42 152.977C136.408 152.951 136.396 152.926 136.384 152.9C136.373 152.874 136.361 152.848 136.351 152.821C136.34 152.795 136.329 152.769 136.319 152.742C136.309 152.716 136.3 152.689 136.291 152.662C136.282 152.635 136.273 152.608 136.265 152.581C136.257 152.554 136.249 152.526 136.242 152.499C136.235 152.472 136.228 152.444 136.222 152.416C136.216 152.389 136.21 152.361 136.204 152.333C136.199 152.305 136.194 152.277 136.189 152.249C136.185 152.221 136.181 152.193 136.177 152.165C136.174 152.137 136.171 152.109 136.168 152.081C136.165 152.052 136.163 152.024 136.162 151.996C136.16 151.967 136.159 151.939 136.158 151.911C136.157 151.882 136.157 151.854 136.157 151.826C136.157 151.797 136.158 151.769 136.159 151.74C136.16 151.712 136.162 151.684 136.164 151.656C136.166 151.627 136.168 151.599 136.171 151.571C136.174 151.543 136.178 151.514 136.181 151.486C136.185 151.458 136.19 151.43 136.194 151.402C136.199 151.374 136.205 151.346 136.21 151.319C136.216 151.291 136.222 151.263 136.229 151.236C136.236 151.208 136.243 151.181 136.25 151.153C136.258 151.126 136.266 151.099 136.274 151.072C136.283 151.044 136.292 151.018 136.301 150.991C136.31 150.964 136.32 150.937 136.33 150.911C136.341 150.884 136.351 150.858 136.362 150.832C136.374 150.806 136.385 150.78 136.397 150.754C136.409 150.729 136.421 150.703 136.434 150.678C136.447 150.652 136.46 150.627 136.474 150.602C136.487 150.578 136.501 150.553 136.516 150.528C136.53 150.504 136.545 150.48 136.56 150.456C136.576 150.432 136.591 150.408 136.607 150.385C136.623 150.361 136.64 150.338 136.656 150.315C136.673 150.293 136.69 150.27 136.708 150.248C136.725 150.225 136.743 150.203 136.762 150.182C136.78 150.16 136.798 150.138 136.817 150.117C136.836 150.096 136.856 150.076 136.875 150.055C136.895 150.035 136.915 150.014 136.935 149.995C136.955 149.975 136.976 149.955 136.997 149.936C137.018 149.917 137.039 149.898 137.061 149.88C137.082 149.861 137.104 149.843 137.126 149.826C137.149 149.808 137.171 149.791 137.194 149.774C137.217 149.757 137.24 149.74 137.263 149.724C137.286 149.708 137.31 149.692 137.333 149.676C137.357 149.661 137.381 149.646 137.406 149.631C137.43 149.617 137.454 149.602 137.479 149.589C137.504 149.575 137.529 149.561 137.554 149.548C137.579 149.535 137.605 149.523 137.631 149.511C137.656 149.498 137.682 149.487 137.708 149.475C137.734 149.464 137.76 149.453 137.787 149.443C137.813 149.432 137.839 149.422 137.866 149.413C137.893 149.403 137.92 149.394 137.947 149.385C137.974 149.377 138.001 149.368 138.028 149.361C138.055 149.353 138.083 149.345 138.11 149.339C138.138 149.332 138.166 149.325 138.193 149.319C138.221 149.313 138.249 149.308 138.277 149.303C138.305 149.298 138.333 149.293 138.361 149.289C138.389 149.285 138.417 149.281 138.445 149.278C138.473 149.275 138.502 149.272 138.53 149.27C138.558 149.268 138.586 149.266 138.615 149.264Z" fill="#C5BDD6"/>
<path d="M138.134 144.56C137.746 144.349 137.655 143.826 137.976 143.522C140.12 141.492 142.961 139.803 145.63 138.524C146.009 138.343 146.471 138.613 146.529 139.029V139.029C146.815 141.405 146.666 143.942 146.177 146.354C145.904 147.699 144.316 148.214 143.153 147.484C142.255 146.921 141.336 146.39 140.412 145.863C139.656 145.432 138.868 145.024 138.134 144.56V144.56Z" fill="#6A5D7B"/>
<path d="M130.044 163.655C130.24 163.473 130.522 163.414 130.758 163.54V163.54C131.103 163.724 131.208 164.175 130.984 164.495C130.55 165.117 130.1 165.729 129.685 166.364C127.888 169.109 126.363 172.104 125.653 175.311C125.454 176.212 125.275 177.19 125.33 178.123C125.341 178.312 125.27 178.498 125.125 178.621V178.621C124.973 178.749 124.765 178.787 124.577 178.724C123.775 178.456 122.99 178.234 122.135 178.137V178.137C121.192 177.993 120.474 177.177 120.781 176.274C122.16 172.212 125.091 168.45 128.044 165.485C128.683 164.843 129.385 164.272 130.044 163.655Z" fill="#C5BDD6"/>
<path d="M131.214 164.854C131.483 164.46 132.016 164.334 132.434 164.563V164.563C132.854 164.793 132.99 165.318 132.761 165.738C131.424 168.179 130.516 170.439 130.164 173.016C129.902 174.939 128.469 176.678 126.764 177.605V177.605V177.605C126.373 177.842 125.852 177.57 125.898 177.116C126.275 173.355 128.38 169.297 130.27 166.272C130.571 165.79 130.894 165.323 131.214 164.854Z" fill="#C5BDD6"/>
<path d="M123.275 162.991C123.194 163.054 123.115 163.121 123.044 163.195V163.195C122.962 163.28 122.895 163.328 122.794 163.344C122.748 163.351 122.705 163.325 122.682 163.285V163.285C122.67 163.265 122.664 163.242 122.665 163.218C122.674 163.066 122.713 162.93 122.769 162.785C122.96 162.288 123.231 161.8 123.455 161.314C124.002 160.101 124.572 158.897 125.163 157.704C125.761 156.487 126.323 155.14 127.062 154.004C127.373 153.526 127.726 153.142 128.312 153.024C128.838 152.919 130.151 152.733 130.862 152.9C131.078 152.95 131.203 153.145 131.11 153.347V153.347C130.574 154.579 129.568 156.544 128.781 157.624C128.432 158.104 124.138 162.316 123.275 162.991Z" fill="#6A5D7B"/>
<path d="M140.6 159.598C140.982 159.056 141.726 159.049 141.976 159.663C142.12 160.017 142.237 160.372 142.304 160.636C142.37 160.898 142.392 161.115 142.307 161.375C142.124 161.934 141.788 162.467 141.497 162.976C140.869 164.078 140.202 165.147 139.521 166.215C138.692 167.516 137.881 168.827 137.088 170.15C137.059 170.206 137.029 170.261 136.996 170.314C136.96 170.371 136.923 170.422 136.88 170.465C136.764 170.581 136.55 170.531 136.539 170.367V170.367C136.511 169.936 136.75 169.291 136.851 168.857C137.071 167.873 137.279 166.887 137.475 165.899C137.627 165.155 137.867 164.33 137.888 163.552C137.894 163.33 137.949 163.108 138.078 162.927C138.503 162.334 138.973 161.772 139.418 161.194C139.824 160.671 140.218 160.138 140.6 159.598Z" fill="#6A5D7B"/>
<path d="M128.525 159.51C128.603 159.21 128.905 159.036 129.197 159.143C130.959 159.794 134.856 162.019 136.435 163.204C136.751 163.441 136.795 163.866 136.539 164.167V164.167V164.167C136.407 164.303 136.202 164.314 136.031 164.232C135.23 163.845 133.434 162.647 132.777 162.277C131.472 161.544 130.135 160.877 128.818 160.169C128.581 160.041 128.457 159.77 128.525 159.51V159.51Z" fill="#6A5D7B"/>
<path d="M128.295 161.192C128.192 161.141 128.15 161.017 128.2 160.914V160.914C128.251 160.812 128.374 160.77 128.476 160.82C130.227 161.672 131.949 162.578 133.64 163.539C134.367 163.955 135.133 164.36 135.806 164.857C135.824 164.871 135.836 164.891 135.84 164.914V164.914C135.845 164.941 135.836 164.968 135.818 164.988L135.79 165.018C135.764 165.046 135.73 165.064 135.693 165.071C135.574 165.094 135.454 165.115 135.339 165.064C134.38 164.643 133.473 163.986 132.564 163.462C131.178 162.664 129.733 161.901 128.295 161.192Z" fill="#6A5D7B"/>
<path d="M42.8022 131.761C39.8993 136.391 33.8174 137.833 29.1448 135L21.7782 130.533C17.1478 127.725 15.712 121.67 18.5886 117.082C19.631 115.419 20.7823 114.225 22.0427 113.499C23.2951 112.768 24.5756 112.434 25.8841 112.499C27.1848 112.558 28.4262 112.946 29.6084 113.663C30.6488 114.294 31.3934 114.998 31.8423 115.774C32.296 116.542 32.5348 117.341 32.5587 118.17C32.586 118.951 32.4923 119.72 32.2778 120.479C32.2576 120.551 32.2868 120.627 32.3503 120.666C32.4229 120.71 32.517 120.691 32.5689 120.623C33.0683 119.976 33.7587 119.44 34.6402 119.014C35.5758 118.563 36.6409 118.356 37.8354 118.395C39.0299 118.433 40.2655 118.839 41.5423 119.613C42.756 120.349 43.6771 121.283 44.3056 122.414C44.934 123.546 45.1642 124.871 44.9961 126.388C44.8281 127.905 44.1546 129.604 42.9758 131.484L42.8022 131.761ZM32.6341 133.126C34.9338 134.521 37.927 133.811 39.3556 131.533L40.3749 129.907C41.5586 128.019 42.0284 126.454 41.7844 125.212C41.5374 123.958 40.8819 123.008 39.8179 122.363C38.9982 121.866 38.1125 121.613 37.1608 121.604C36.2012 121.591 35.2738 121.838 34.3787 122.346C33.4758 122.85 32.6979 123.622 32.0452 124.663L31.0162 126.304C29.5571 128.631 30.2854 131.702 32.6341 133.126ZM21.8495 126.587C24.0458 127.919 26.9044 127.241 28.2688 125.065L29.1701 123.627C29.7157 122.757 30.0342 121.867 30.1259 120.958C30.2224 120.04 30.0844 119.185 29.7121 118.391C29.3446 117.589 28.7353 116.93 27.8841 116.414C26.8201 115.768 25.6887 115.586 24.4899 115.867C23.2833 116.144 22.1832 117.074 21.1894 118.659L20.3043 120.071C18.9107 122.294 19.6063 125.227 21.8495 126.587Z" fill="#F6F5F8"/>
<path d="M55.6684 115.204C52.4293 118.632 47.0387 118.828 43.5599 115.643L35.3965 108.17C31.8847 104.955 31.6865 99.4874 34.9562 96.0267L39.6949 91.0112C40.2635 90.4094 41.2098 90.3751 41.8205 90.9342C42.445 91.5058 42.4803 92.4782 41.8988 93.0936L36.9217 98.3613C35.0929 100.297 35.2038 103.355 37.168 105.154C39.089 106.912 42.0655 106.804 43.8541 104.911L48.3608 100.141C48.9294 99.5395 49.8757 99.5051 50.4864 100.064C51.1109 100.636 51.1462 101.608 50.5647 102.224L46.2133 106.829C44.3738 108.776 44.4854 111.852 46.461 113.661C48.3931 115.429 51.3868 115.321 53.1857 113.417L58.4318 107.864C59.0004 107.263 59.9467 107.228 60.5575 107.787C61.1819 108.359 61.2172 109.331 60.6357 109.947L55.6684 115.204Z" fill="#F6F5F8"/>
<path d="M65.073 71.6456C65.8353 71.1246 66.8748 71.3127 67.4064 72.0677L81.3773 91.9123C82.0749 92.903 81.8271 94.2729 80.8267 94.9566C80.247 95.3528 79.5115 95.4444 78.8523 95.2024L54.5189 86.2715C54.464 86.2514 54.4027 86.259 54.3544 86.292C54.271 86.349 54.2504 86.4632 54.3085 86.5457L65.9188 103.037C66.4698 103.82 66.2741 104.902 65.4838 105.442C64.709 105.972 63.6524 105.78 63.1122 105.013L49.1572 85.1912C48.4595 84.2002 48.7073 82.83 49.7079 82.1462C50.2875 81.7501 51.0226 81.6584 51.6817 81.8999L76.0927 90.8453C76.1476 90.8654 76.2089 90.8578 76.2572 90.8248C76.3405 90.7678 76.3612 90.6536 76.303 90.571L64.645 74.0118C64.1029 73.2417 64.2954 72.177 65.073 71.6456Z" fill="#F6F5F8"/>
<path d="M87.5814 91.4569C86.7043 91.8061 85.7096 91.3834 85.3522 90.5095L76.0317 67.7211C75.6696 66.8356 76.0991 65.8248 76.9879 65.4709C77.865 65.1217 78.8597 65.5444 79.2171 66.4182L83.7548 77.5128C83.8031 77.6308 83.9374 77.6879 84.0558 77.6407C84.1167 77.6165 84.1645 77.5677 84.1875 77.5063L90.4889 60.6739C90.651 60.2411 90.9881 59.8969 91.4174 59.726C92.7486 59.196 94.0709 60.5093 93.5501 61.8441L90.3323 70.0902C89.3498 72.6082 90.348 75.4666 92.6844 76.8255L102.642 82.6172C103.82 83.3022 103.691 85.0431 102.425 85.5471C101.953 85.7351 101.42 85.6927 100.984 85.4325L90.9982 79.4779C89.2126 78.4132 86.899 79.237 86.1883 81.1907C85.9068 81.9644 85.9235 82.8153 86.2352 83.5773L88.5376 89.2067C88.8998 90.0921 88.4702 91.103 87.5814 91.4569Z" fill="#F6F5F8"/>
<path d="M101.67 59.0994C100.794 58.1271 101.331 56.5708 102.62 56.3458C103.193 56.2457 103.777 56.4521 104.16 56.8902L113.502 67.5812C113.57 67.6589 113.674 67.6955 113.775 67.6778C113.878 67.66 113.963 67.5898 114 67.493L119.083 54.2947C119.294 53.7474 119.776 53.3509 120.354 53.2501C121.643 53.025 122.678 54.3039 122.19 55.5181L117.027 68.3397C116.401 69.8967 116.224 71.5987 116.518 73.2512L117.789 80.3905C117.957 81.3296 117.329 82.2259 116.389 82.39C115.454 82.5532 114.563 81.9292 114.397 80.9945L113.125 73.8501C112.83 72.1933 112.076 70.6523 110.95 69.4019L101.67 59.0994Z" fill="#F6F5F8"/>
<path d="M155.761 67.4447C155.589 70.3955 154.9 72.9164 153.693 75.0071C152.486 77.0979 150.905 78.6751 148.951 79.7386C146.996 80.8021 144.807 81.2683 142.383 81.137C139.96 81.0056 137.838 80.306 136.019 79.038C134.2 77.7699 132.811 76.0319 131.854 73.8239C130.896 71.6158 130.503 69.0364 130.674 66.0855C130.845 63.1346 131.535 60.6138 132.742 58.523C133.949 56.4322 135.529 54.8551 137.484 53.7915C139.439 52.728 141.628 52.2619 144.052 52.3932C146.475 52.5245 148.597 53.2242 150.416 54.4922C152.235 55.7602 153.624 57.4982 154.581 59.7063C155.539 61.9143 155.932 64.4938 155.761 67.4447ZM152.431 67.2642C152.571 64.8416 152.278 62.7746 151.552 61.0633C150.834 59.3525 149.802 58.0312 148.455 57.0994C147.117 56.1681 145.588 55.6559 143.868 55.5626C142.147 55.4694 140.564 55.813 139.117 56.5935C137.68 57.3744 136.501 58.576 135.581 60.198C134.671 61.8206 134.145 63.8433 134.004 66.2659C133.864 68.6885 134.152 70.7553 134.869 72.4661C135.596 74.1774 136.628 75.4987 137.966 76.43C139.313 77.3618 140.847 77.8743 142.567 77.9675C144.288 78.0607 145.867 77.7168 147.304 76.9359C148.75 76.1555 149.929 74.9539 150.84 73.3313C151.76 71.7092 152.29 69.6869 152.431 67.2642Z" fill="#F6F5F8"/>
<path d="M167.844 84.8355C166.946 84.5053 166.49 83.5046 166.831 82.6102L172.801 66.9457C174.694 61.9781 180.231 59.4575 185.221 61.2916C187.303 62.0568 188.878 63.0353 189.947 64.2271C191.019 65.4104 191.644 66.7267 191.824 68.1762C192.003 69.6257 191.798 71.1238 191.208 72.6707C190.619 74.2175 189.775 75.4712 188.677 76.4317C187.58 77.3922 186.237 77.9704 184.649 78.1662C183.065 78.3535 181.24 78.0677 179.176 77.3089L173.349 75.167C172.546 74.8718 172.139 73.9774 172.443 73.1779C172.743 72.3916 173.619 71.9927 174.409 72.283L180.166 74.3992C181.589 74.9221 182.812 75.1378 183.836 75.0465C184.868 74.9583 185.723 74.6099 186.4 74.0013C187.088 73.3874 187.633 72.5549 188.034 71.5037C188.434 70.4526 188.585 69.4605 188.486 68.5276C188.386 67.5947 187.98 66.7536 187.267 66.0043C186.557 65.2464 185.482 64.6028 184.042 64.0735C180.898 62.9179 177.41 64.5061 176.217 67.6359L170.044 83.8344C169.708 84.714 168.728 85.1603 167.844 84.8355ZM182.29 76.6997C182.881 76.917 183.306 77.4406 183.396 78.0638L184.889 88.3459C185.08 89.6594 183.797 90.6996 182.552 90.2416C181.944 90.0184 181.509 89.4785 181.421 88.8375L179.998 78.5456C179.82 77.2624 181.074 76.2528 182.29 76.6997Z" fill="#F6F5F8"/>
<path d="M216.788 79.7344C217.303 78.9526 218.351 78.729 219.14 79.2323C219.947 79.7465 220.176 80.8215 219.65 81.6203L210.341 95.747C209.281 97.3555 207.95 98.5465 206.348 99.32C204.759 100.091 203.029 100.397 201.158 100.238C199.293 100.071 197.424 99.3911 195.552 98.1974C193.679 97.0037 192.285 95.6036 191.369 93.997C190.457 92.3828 190.031 90.7024 190.09 88.9559C190.161 87.2067 190.727 85.5278 191.787 83.9193L201.124 69.7492C201.64 68.9674 202.687 68.7438 203.476 69.2471C204.283 69.7613 204.513 70.8363 203.986 71.635L194.828 85.532C194.071 86.681 193.654 87.8669 193.576 89.09C193.503 90.3054 193.772 91.4718 194.382 92.5893C195.004 93.704 195.98 94.6849 197.308 95.5319C198.637 96.3788 199.946 96.8541 201.235 96.9578C202.528 97.0539 203.721 96.8186 204.811 96.252C205.914 95.6828 206.845 94.8237 207.602 93.6747L216.788 79.7344Z" fill="#F6F5F8"/>
<path d="M235.401 103.64C234.777 103.016 234.775 102.031 235.076 101.201C235.34 100.469 235.388 99.6862 235.22 98.8512C234.944 97.482 234.202 96.1934 232.995 94.9856C232.112 94.1025 231.194 93.4707 230.24 93.0902C229.294 92.7162 228.381 92.5908 227.502 92.7139C226.629 92.8435 225.869 93.2222 225.222 93.85C224.68 94.3753 224.34 94.9535 224.203 95.5847C224.08 96.216 224.09 96.8578 224.235 97.5103C224.387 98.1563 224.6 98.7801 224.877 99.3818C225.16 99.9771 225.436 100.508 225.707 100.974L227.178 103.538C227.559 104.192 227.945 104.956 228.337 105.829C228.735 106.709 229.015 107.646 229.176 108.641C229.35 109.635 229.302 110.641 229.031 111.658C228.759 112.676 228.148 113.645 227.196 114.568C226.099 115.631 224.825 116.31 223.374 116.603C221.93 116.903 220.408 116.767 218.808 116.195C217.215 115.63 215.652 114.581 214.12 113.048C212.691 111.62 211.689 110.155 211.113 108.655C210.543 107.161 210.38 105.709 210.622 104.298C210.766 103.483 211.042 102.709 211.451 101.978C211.947 101.09 213.149 101.066 213.868 101.785C214.526 102.444 214.51 103.484 214.166 104.349C214.011 104.74 213.92 105.143 213.893 105.558C213.845 106.487 214.04 107.411 214.477 108.329C214.927 109.248 215.548 110.104 216.34 110.896C217.262 111.818 218.242 112.499 219.28 112.938C220.324 113.371 221.335 113.535 222.312 113.432C223.296 113.323 224.158 112.909 224.898 112.192C225.573 111.538 225.936 110.822 225.989 110.042C226.042 109.261 225.899 108.441 225.559 107.581C225.22 106.721 224.799 105.844 224.296 104.951L222.555 101.804C221.453 99.804 220.87 97.9392 220.807 96.2102C220.744 94.4811 221.397 92.9536 222.765 91.6276C223.902 90.5258 225.195 89.8669 226.645 89.6508C228.108 89.4349 229.587 89.6125 231.082 90.1837C232.591 90.7549 233.981 91.6769 235.254 92.9496C236.539 94.2354 237.447 95.6056 237.978 97.0604C238.515 98.5089 238.673 99.916 238.451 101.282C238.327 102.074 238.073 102.808 237.69 103.484C237.216 104.321 236.082 104.321 235.401 103.64Z" fill="#F6F5F8"/>
<path d="M224.2 123.137C223.689 122.337 223.932 121.274 224.738 120.774L245.956 107.629C246.748 107.138 247.787 107.375 248.288 108.16C248.799 108.961 248.556 110.023 247.75 110.523L243.847 112.941C240.894 114.771 240.006 118.663 241.875 121.592L243.146 123.583C245.029 126.535 248.935 127.426 251.911 125.582L255.852 123.14C256.644 122.65 257.683 122.886 258.184 123.672C258.694 124.472 258.452 125.535 257.645 126.035L236.427 139.18C235.635 139.671 234.596 139.434 234.095 138.649C233.585 137.848 233.827 136.786 234.634 136.286L238.56 133.853C241.526 132.015 242.417 128.107 240.541 125.165L239.3 123.22C237.408 120.255 233.485 119.361 230.496 121.213L226.532 123.669C225.74 124.159 224.701 123.923 224.2 123.137Z" fill="#F6F5F8"/>
</svg>
