<svg width="1920" height="1080" viewBox="0 0 1920 1080" fill="none" xmlns="http://www.w3.org/2000/svg">
<g clip-path="url(#clip0_55_115)">
<rect width="1920" height="1080" fill="#F6F5F8"/>
<path d="M0 0H355.084C348.967 56.3906 283.58 112.432 235.824 146.75C226.856 153.183 217.769 159.486 208.564 165.66C199.359 171.833 190.041 177.874 180.609 183.783C171.177 189.692 161.637 195.465 151.988 201.102C142.34 206.74 132.588 212.239 122.732 217.599C112.878 222.96 102.925 228.178 92.8741 233.256C82.8234 238.333 72.68 243.266 62.4441 248.055C52.2082 252.844 41.8852 257.486 31.4751 261.982C21.065 266.477 10.5733 270.823 0 275.02V0Z" fill="#C5BDD6"/>
<path d="M355.084 0H368.764C365.568 53.9405 307.929 107.701 263.866 142.314C209.06 185.367 145.416 223.206 80.6722 253.956C54.1864 266.535 26.4389 277.135 0 289.641V275.02C10.5733 270.823 21.065 266.477 31.4751 261.982C41.8853 257.486 52.2083 252.844 62.4441 248.055C72.68 243.266 82.8234 238.333 92.8742 233.256C102.925 228.178 112.878 222.96 122.732 217.599C132.588 212.239 142.34 206.74 151.988 201.102C161.637 195.465 171.177 189.692 180.609 183.783C190.041 177.874 199.359 171.833 208.564 165.66C217.769 159.486 226.856 153.183 235.824 146.75C283.58 112.432 348.967 56.3906 355.084 0Z" fill="#6A5D7B"/>
<path d="M1687.12 435.325C1691.62 427.385 1681.33 402.786 1690.65 387.393C1691.88 385.361 1693.67 383.637 1696.32 383.074C1701.21 382.037 1707.19 385.457 1711.06 387.668C1719.17 392.309 1739.41 407.548 1741.37 415.601C1744.45 413.941 1746.73 410.764 1749.01 408.329C1757.08 399.709 1766.19 390.375 1778.12 385.768C1781.23 384.567 1785.37 383.387 1788.66 384.714C1792.32 386.192 1794.12 389.802 1795.17 392.985C1798.53 403.143 1799.84 426.357 1793.92 435.9C1809.22 434.802 1829.06 433.269 1843.61 438.743C1846.72 439.914 1848.38 441.151 1849.58 443.894C1849.19 446.421 1848.98 447.813 1846.82 449.685C1846.78 455.194 1840.72 460.145 1836.37 463.878C1830.04 469.317 1820.65 477.527 1812.44 480.461C1824.56 486.248 1845.67 500.901 1849.44 512.922C1850.12 515.094 1849.98 517.213 1848.49 519.126C1847.36 520.574 1845.86 521.291 1844.01 521.841C1842.01 524.453 1837.64 525.258 1834.29 525.86C1824.03 527.7 1802.79 525.294 1795.74 527.647C1795.78 529.491 1796.02 531.432 1795.59 533.242C1802.06 534.976 1807.13 536.534 1810.55 541.958C1812.67 545.333 1813.44 549.169 1811.99 552.887C1810.58 556.484 1806.88 559.518 1802.95 561.043C1801.04 561.781 1798.94 561.893 1796.89 562.083C1796.21 562.147 1795.54 562.227 1794.85 562.288C1795.43 565.963 1793.79 570.049 1791.21 572.967C1789.49 574.907 1787.21 576.356 1784.35 576.618C1777.42 577.252 1770.02 571.472 1765.22 567.735C1759.17 563.03 1746.65 549.104 1741.74 546.563C1738.54 555.287 1718.23 570.329 1708.95 574.484C1705.27 576.13 1700.93 577.544 1696.78 576.463C1695.74 576.191 1694.75 575.778 1693.77 575.348C1679.21 554.689 1690.95 538.239 1685.64 527.043C1672.13 528.736 1647.86 529.934 1636.12 522.919C1634.06 521.693 1632.59 520.06 1632.29 517.863C1630.99 508.501 1647.63 495.581 1655.63 490.194C1659.04 487.9 1664.84 485.167 1667.27 482.149C1667.48 481.884 1667.68 481.61 1667.88 481.339C1666.03 477.235 1655.25 470.69 1651.18 467.447C1644.63 462.222 1634.79 454.322 1634.72 446.037C1634.69 443.595 1635.58 441.488 1637.64 439.79C1647.14 431.922 1674.44 434.856 1687.12 435.325Z" fill="#6A5D7B"/>
<path d="M1759.01 522.06C1769.18 524.397 1781.02 524.798 1790.62 528.337C1792.21 530.368 1791.86 531.47 1791.85 533.803C1792.93 533.948 1794.67 534.466 1795.59 533.98C1802.06 535.714 1807.13 537.272 1810.55 542.697C1812.67 546.071 1813.44 549.908 1811.99 553.625C1810.58 557.222 1806.88 560.256 1802.95 561.782C1801.04 562.52 1798.94 562.632 1796.89 562.821C1796.21 562.885 1795.54 562.965 1794.85 563.026L1794.16 562.084L1791.37 562.254C1791.45 562.537 1791.53 562.817 1791.58 563.103C1792.12 565.725 1790.66 569.611 1788.77 571.666C1787.36 573.196 1786.13 574.014 1783.89 574.195C1772.19 575.143 1752.79 550.711 1744.54 544.791C1744.34 544.654 1744.15 544.522 1743.95 544.389C1749.63 540.605 1757.96 528.194 1759.01 522.06Z" fill="#F6F5F8"/>
<path d="M1791.37 562.254C1791.14 561.452 1790.89 560.949 1790.23 560.352C1789.77 559.951 1789.29 559.568 1788.85 559.167C1786.02 556.667 1780.87 550.58 1781.19 546.977C1781.64 541.872 1787.55 536.782 1791.85 533.803C1792.93 533.948 1794.67 534.466 1795.59 533.98C1802.06 535.714 1807.13 537.272 1810.55 542.697C1812.67 546.071 1813.44 549.908 1811.99 553.625C1810.58 557.222 1806.88 560.256 1802.95 561.782C1801.04 562.52 1798.94 562.632 1796.89 562.821C1796.21 562.885 1795.54 562.965 1794.85 563.026L1794.16 562.084L1791.37 562.254Z" fill="#4A3E5C"/>
<path d="M1796.63 542.919C1796.72 542.9 1796.82 542.884 1796.91 542.869C1797 542.854 1797.1 542.841 1797.19 542.83C1797.28 542.819 1797.38 542.81 1797.47 542.803C1797.57 542.797 1797.66 542.792 1797.76 542.788C1797.86 542.786 1797.95 542.785 1798.05 542.787C1798.15 542.788 1798.24 542.791 1798.34 542.796C1798.43 542.802 1798.52 542.809 1798.62 542.818C1798.71 542.828 1798.81 542.839 1798.91 542.852C1799 542.866 1799.09 542.881 1799.18 542.899C1799.28 542.916 1799.37 542.935 1799.46 542.957C1799.56 542.978 1799.65 543.001 1799.74 543.027C1799.83 543.052 1799.92 543.08 1800.01 543.109C1800.09 543.138 1800.18 543.168 1800.27 543.201C1800.36 543.234 1800.45 543.269 1800.54 543.306C1800.62 543.342 1800.71 543.38 1800.79 543.42C1800.88 543.46 1800.96 543.502 1801.04 543.546C1801.12 543.589 1801.2 543.635 1801.27 543.682C1801.35 543.729 1801.43 543.778 1801.51 543.828C1801.59 543.878 1801.66 543.93 1801.73 543.984C1801.8 544.037 1801.88 544.092 1801.95 544.149C1802.02 544.206 1802.08 544.264 1802.15 544.323C1802.22 544.382 1802.28 544.443 1802.35 544.505C1802.41 544.567 1802.47 544.631 1802.53 544.696C1802.59 544.761 1802.65 544.826 1802.71 544.893C1802.76 544.961 1802.82 545.03 1802.87 545.099C1802.92 545.169 1802.97 545.239 1803.02 545.311C1803.07 545.383 1803.12 545.455 1803.16 545.53C1803.21 545.603 1803.25 545.677 1803.28 545.753C1803.33 545.828 1803.36 545.905 1803.39 545.982C1803.43 546.059 1803.46 546.136 1803.49 546.215C1803.53 546.294 1803.56 546.373 1803.58 546.453C1803.61 546.533 1803.64 546.613 1803.66 546.694C1803.68 546.774 1803.7 546.855 1803.72 546.937C1803.74 547.019 1803.76 547.101 1803.77 547.184C1803.78 547.266 1803.79 547.348 1803.81 547.431C1803.81 547.514 1803.82 547.597 1803.82 547.68C1803.82 547.763 1803.83 547.846 1803.83 547.929C1803.83 548.012 1803.82 548.096 1803.82 548.179C1803.81 548.262 1803.8 548.345 1803.79 548.427C1803.79 548.51 1803.78 548.592 1803.76 548.675C1803.75 548.757 1803.73 548.838 1803.71 548.919C1803.68 549.001 1803.66 549.082 1803.64 549.163C1803.62 549.244 1803.59 549.324 1803.56 549.403C1803.53 549.482 1803.5 549.561 1803.47 549.639C1803.44 549.717 1803.41 549.795 1803.37 549.872C1803.33 549.948 1803.29 550.024 1803.25 550.099C1803.21 550.174 1803.16 550.248 1803.12 550.321C1803.07 550.394 1803.03 550.466 1802.98 550.537C1802.93 550.609 1802.88 550.679 1802.83 550.748C1802.77 550.817 1802.71 550.884 1802.66 550.951C1802.6 551.018 1802.54 551.083 1802.48 551.147C1802.42 551.211 1802.36 551.274 1802.29 551.336C1802.23 551.397 1802.16 551.457 1802.09 551.515C1802.03 551.574 1801.96 551.631 1801.88 551.687C1801.82 551.743 1801.75 551.797 1801.67 551.849C1801.6 551.902 1801.52 551.953 1801.44 552.002C1801.36 552.051 1801.29 552.099 1801.21 552.146C1801.13 552.192 1801.05 552.236 1800.96 552.278C1800.88 552.321 1800.8 552.362 1800.72 552.401C1800.63 552.44 1800.55 552.478 1800.46 552.513C1800.37 552.549 1800.28 552.582 1800.19 552.614C1800.11 552.645 1800.02 552.675 1799.93 552.704C1799.84 552.731 1799.75 552.757 1799.66 552.781C1799.57 552.806 1799.48 552.828 1799.38 552.848C1799.29 552.868 1799.19 552.887 1799.11 552.903C1799.01 552.919 1798.91 552.933 1798.82 552.945C1798.72 552.958 1798.62 552.968 1798.53 552.975C1798.43 552.984 1798.33 552.99 1798.24 552.994C1798.14 552.998 1798.05 553 1797.95 553C1797.85 553 1797.76 552.997 1797.66 552.993C1797.56 552.988 1797.47 552.982 1797.37 552.974C1797.28 552.965 1797.18 552.955 1797.08 552.942C1796.99 552.929 1796.89 552.915 1796.81 552.898C1796.71 552.881 1796.61 552.863 1796.52 552.842C1796.43 552.821 1796.33 552.799 1796.24 552.774C1796.15 552.75 1796.06 552.723 1795.96 552.694C1795.87 552.666 1795.78 552.635 1795.69 552.603C1795.61 552.57 1795.52 552.536 1795.43 552.5C1795.35 552.464 1795.26 552.426 1795.17 552.386C1795.09 552.346 1795.01 552.304 1794.93 552.261C1794.85 552.217 1794.76 552.172 1794.68 552.125C1794.6 552.078 1794.52 552.029 1794.45 551.979C1794.37 551.928 1794.29 551.876 1794.22 551.823C1794.14 551.769 1794.07 551.714 1793.99 551.658C1793.93 551.601 1793.86 551.543 1793.79 551.483C1793.73 551.423 1793.66 551.361 1793.59 551.299C1793.53 551.236 1793.46 551.173 1793.41 551.107C1793.35 551.042 1793.29 550.976 1793.23 550.908C1793.17 550.841 1793.11 550.772 1793.06 550.701C1793.01 550.631 1792.96 550.56 1792.91 550.488C1792.86 550.415 1792.82 550.342 1792.77 550.267C1792.73 550.193 1792.68 550.118 1792.64 550.042C1792.6 549.966 1792.56 549.889 1792.53 549.811C1792.49 549.733 1792.46 549.654 1792.43 549.575C1792.39 549.496 1792.36 549.417 1792.34 549.336C1792.31 549.256 1792.28 549.174 1792.26 549.092C1792.24 549.011 1792.22 548.928 1792.19 548.846C1792.18 548.763 1792.16 548.681 1792.15 548.597C1792.13 548.514 1792.12 548.431 1792.12 548.347C1792.11 548.264 1792.11 548.18 1792.11 548.097C1792.1 548.012 1792.09 547.928 1792.09 547.844C1792.09 547.76 1792.1 547.677 1792.11 547.593C1792.11 547.509 1792.12 547.425 1792.13 547.341C1792.14 547.258 1792.16 547.175 1792.17 547.092C1792.19 547.009 1792.2 546.926 1792.22 546.844C1792.24 546.762 1792.26 546.68 1792.28 546.599C1792.31 546.518 1792.34 546.437 1792.37 546.357C1792.39 546.277 1792.42 546.198 1792.46 546.118C1792.5 546.04 1792.53 545.962 1792.57 545.884C1792.61 545.807 1792.65 545.731 1792.68 545.655C1792.73 545.58 1792.77 545.505 1792.82 545.432C1792.87 545.358 1792.92 545.286 1792.97 545.214C1793.02 545.143 1793.07 545.072 1793.13 545.003C1793.18 544.934 1793.23 544.866 1793.29 544.799C1793.35 544.732 1793.41 544.667 1793.47 544.602C1793.54 544.538 1793.61 544.475 1793.67 544.414C1793.73 544.353 1793.8 544.293 1793.87 544.234C1793.94 544.175 1794.01 544.118 1794.08 544.063C1794.16 544.007 1794.23 543.953 1794.31 543.9C1794.38 543.848 1794.46 543.798 1794.54 543.749C1794.61 543.7 1794.69 543.652 1794.77 543.606C1794.85 543.561 1794.93 543.517 1795.02 543.474C1795.11 543.432 1795.19 543.392 1795.27 543.353C1795.36 543.315 1795.45 543.279 1795.54 543.244C1795.62 543.209 1795.71 543.176 1795.81 543.145C1795.89 543.114 1795.98 543.084 1796.07 543.057C1796.16 543.03 1796.25 543.005 1796.35 542.983C1796.44 542.96 1796.53 542.938 1796.63 542.919Z" fill="#F6F5F8"/>
<path d="M1740.07 451.592C1746.67 453.332 1757.94 456.741 1763.03 460.668C1766.06 463.2 1773.44 477.159 1773.43 480.841C1773.43 481.145 1773.41 481.45 1773.38 481.755C1773.68 485.731 1768.47 497.324 1765.54 500.463C1765.13 500.907 1764.78 501.12 1764.27 501.51C1758.05 505.433 1746.19 509.709 1738.75 511.566C1731.67 507.173 1721.79 503.845 1713.69 501.009C1713.23 496.74 1710.84 489.704 1707.01 486.822C1707.09 486.484 1707.18 486.187 1707.17 485.831C1706.79 476.544 1713.37 469.982 1715.78 461.194C1718.58 460.434 1721.87 459.654 1723.64 457.527C1728.67 456.562 1736.03 454.454 1740.07 451.592Z" fill="#F6F5F8"/>
<path d="M1691.35 436.514C1694.87 429.359 1685.45 402.706 1693.03 390.415C1693.87 389.047 1695.45 387.716 1697.22 387.363C1701.06 386.597 1705.32 388.899 1708.39 390.65C1716.91 395.474 1736.75 410.5 1738.82 419.132C1738.74 422.264 1727.35 436.072 1724.59 439.314L1723.92 441.135C1721.71 441.974 1720.04 441.546 1717.73 441.159C1713.71 438.085 1697.23 437.25 1691.35 436.514Z" fill="#F6F5F8"/>
<path d="M1717.51 521.765C1718.48 521.69 1720.53 521.251 1721.24 521.793C1724.24 524.059 1738.78 542.098 1738.95 544.79C1737.89 551.53 1722.93 562.715 1716.77 566.812C1710.61 570.928 1704.31 574.908 1696.15 574.072C1694.21 568.642 1690.85 564.226 1689.99 558.336C1688.68 549.353 1692.58 534.603 1689.79 527.304C1697.41 526.696 1711.05 525.457 1717.51 521.765Z" fill="#F6F5F8"/>
<path d="M1779.99 389.11C1782.35 388.755 1785.22 388.354 1787.32 389.547C1791.01 391.646 1792.45 396.386 1793.24 399.948C1794.87 407.365 1795.02 430.478 1790.16 436.657C1783.52 438.068 1763.11 443.188 1757.92 440.688C1757.94 440.294 1757.93 439.897 1757.89 439.504C1757.51 434.492 1747.95 421.922 1743.43 418.844C1748.94 416.071 1754.29 408.359 1758.59 404.145C1764.99 397.872 1771.64 393.255 1779.99 389.11Z" fill="#F6F5F8"/>
<path d="M1809.27 483.401C1820.78 487.576 1839.91 502.308 1844.87 512.471C1845.67 514.089 1845.82 515.529 1845.63 517.269C1844.72 518.647 1844.12 519.404 1842.54 520.229C1832.87 526.949 1805.07 524.748 1792.93 524.36C1793.19 523.802 1793.33 523.296 1793.39 522.691C1793.44 522.276 1793.46 521.86 1793.45 521.443C1793.45 521.026 1793.42 520.611 1793.37 520.196C1793.32 519.782 1793.24 519.371 1793.14 518.964C1793.04 518.556 1792.92 518.153 1792.77 517.756C1792.63 517.358 1792.46 516.968 1792.27 516.586C1792.08 516.203 1791.87 515.83 1791.64 515.465C1791.41 515.101 1791.16 514.748 1790.88 514.405C1790.61 514.063 1790.32 513.733 1790.01 513.416C1791.11 509.295 1788.49 502.254 1785.93 498.709C1785.46 498.061 1785.01 497.696 1784.35 497.188C1790.08 495.433 1806.47 488.08 1809.27 483.401Z" fill="#F6F5F8"/>
<path d="M1687.15 522.851L1686.88 523.866C1686.55 524.038 1686.07 524.297 1685.68 524.424C1676.94 527.25 1648.96 525.73 1640.43 522.075C1637.89 520.991 1636.83 519.913 1635.86 517.627C1635.73 509.342 1651.89 497.429 1659.15 492.612C1662.55 490.355 1668.16 487.754 1670.68 484.825C1670.88 484.589 1671.07 484.346 1671.27 484.105C1674.77 485.234 1677.66 487.353 1680.64 489.273C1684.28 491.23 1691.99 494.241 1694.33 497.16C1695.13 503.832 1689.89 516.397 1687.15 522.851Z" fill="#F6F5F8"/>
<path d="M1671.46 479.876C1669.43 477.578 1666.11 475.552 1663.58 473.61C1656.56 468.208 1637.36 454.094 1636.77 445.917C1637.56 444.188 1637.93 443.351 1639.92 442.38C1647.65 438.617 1680.29 437.665 1688.86 440.082C1690.44 442.23 1690.08 442.727 1689.78 445.311C1692.32 450.336 1696.43 460.831 1695.52 466.263C1691.62 469.883 1684.16 472.818 1679.17 475.374C1676.73 477.328 1674.38 478.554 1671.46 479.876Z" fill="#F6F5F8"/>
<path d="M1793.08 440.019C1801.58 439.373 1810.13 438.759 1818.66 438.962C1826.36 439.145 1839.02 439.087 1844.57 444.193C1845.42 446.823 1845.14 447.109 1843.99 449.695C1843.44 456.077 1830.48 465.135 1825.05 469.175C1820.39 472.635 1815.19 476.799 1809.78 479.293C1807.47 477.308 1805.65 476.484 1802.66 475.519C1802.63 475.391 1802.61 475.253 1802.54 475.131C1800.69 471.64 1789.46 467.825 1785.38 466.579C1786.64 465.515 1787.32 464.455 1787.94 463.035C1790.22 457.826 1795.74 445.164 1793.08 440.019Z" fill="#F6F5F8"/>
<path d="M1763.33 452.209C1763.36 452.066 1763.39 451.922 1763.42 451.777C1763.83 449.57 1763.07 447.881 1762.28 445.831C1769.61 441.548 1781.39 442.642 1789.57 439.989C1791.72 445.068 1786.69 457.84 1784.15 462.502C1783.62 463.48 1782.93 464.151 1782.06 464.911C1779.33 462.309 1773.86 460.812 1769.94 460.194C1767.08 458.268 1766.08 454.585 1763.33 452.209Z" fill="#F6F5F8"/>
<path d="M1776.71 500.394C1778.08 500.11 1780.34 499.315 1781.55 499.906C1784.88 501.525 1785.76 506.293 1786.38 509.251C1786.71 510.745 1787.04 511.918 1786.62 513.406C1788.75 516.878 1790.26 519.487 1788.82 523.505C1788.75 523.682 1788.68 523.857 1788.62 524.032C1780.77 523.084 1766.86 522.774 1761.11 517.47C1761.29 517.338 1761.49 517.214 1761.68 517.075C1765.26 514.467 1767.69 508.152 1768.27 504.233C1771.31 503.46 1774.68 502.592 1776.71 500.394Z" fill="#F6F5F8"/>
<path d="M1698.41 498.797C1701.09 499.449 1703.63 500.81 1706.11 501.921C1708.04 502.524 1711.61 503.314 1712.68 504.94C1713.43 506.059 1713.69 507.618 1713.97 508.877C1716.15 511.651 1718.71 514.307 1719.12 517.751C1718.33 518.339 1717.73 518.805 1716.78 519.202C1711.41 520.444 1696.29 525.277 1691.33 522.719C1690.68 522.389 1690.73 522.391 1690.25 522.023C1694.64 517.87 1696.78 504.458 1698.41 498.797Z" fill="#F6F5F8"/>
<path d="M1726.57 519.354C1730.25 518.805 1736.41 517.889 1738.85 515.235C1743.09 516.523 1747.25 517.884 1751.39 519.409C1753.06 519.834 1753.75 520.051 1754.96 521.209C1754.97 521.815 1754.94 522.402 1754.81 523.001C1753.64 528.49 1746.33 538.755 1741.08 541.916C1740.41 534.399 1725.36 527.357 1726.57 519.354Z" fill="#F6F5F8"/>
<path d="M1692.77 441.955C1699.08 439.381 1712.03 442.458 1718.64 444.487L1720.11 446.408C1718.71 450.251 1715.84 455.902 1712.56 458.742C1710.04 461.474 1702.27 463.443 1698.39 464.505C1699.95 459.798 1695.51 446.316 1692.77 441.955Z" fill="#F6F5F8"/>
<path d="M1727.65 440.179C1730.67 438.168 1740.61 425.67 1740.96 422.417C1740.99 422.186 1740.99 421.955 1741.01 421.724C1746.28 425.196 1754.11 436.211 1755.21 441.884C1755.24 442.031 1755.25 442.18 1755.28 442.327C1753.52 444.262 1751.02 444.654 1748.42 445.369C1744.46 446.939 1741.78 447.754 1737.36 447.095C1735.77 445.161 1732.31 444.923 1730.01 443.696C1727.94 442.587 1728.13 442.164 1727.65 440.179Z" fill="#F6F5F8"/>
<path d="M1784.45 469.518C1790.26 471.089 1795.94 474.241 1800.81 477.361C1802.85 478.52 1805.59 479.506 1806.57 481.458C1800.81 485.628 1791.91 492.626 1784.22 492.765C1783.09 491.868 1781.97 490.992 1780.96 489.99C1782.01 487.619 1779.91 483.954 1779.95 481.275C1779.96 480.2 1779.92 479.128 1779.88 478.054C1780.77 477.451 1781.63 476.844 1782.36 476.1C1784.25 474.195 1784.71 471.942 1784.45 469.518Z" fill="#F6F5F8"/>
<path d="M1680.03 477.941C1684.69 476.295 1692.84 473.031 1695.93 469.554C1698.62 472.407 1701.25 477.246 1700.99 481.029C1700.96 481.621 1700.93 481.635 1700.75 482.117C1701.11 485.571 1698.95 490.412 1696.48 493.127C1696.26 493.364 1696.03 493.588 1695.81 493.819C1692.59 491.017 1685.68 487.604 1681.34 486.636C1681.28 486.445 1681.26 486.239 1681.16 486.062C1680.09 484.233 1678.93 483.625 1676.86 483.03L1678.36 479.521L1678.76 479.808L1680.03 477.941Z" fill="#F6F5F8"/>
<path d="M1751.11 516.699C1749.78 515.768 1748.46 514.865 1747.09 513.988C1747.14 513.225 1746.94 512.506 1747.62 511.933C1750.84 509.2 1758.68 509.16 1762.83 506.036C1762.88 509.981 1761.06 513.546 1758.45 516.716C1756.02 517.914 1753.81 517.077 1751.11 516.699Z" fill="#F6F5F8"/>
<path d="M1769.18 464.528C1773.73 464.475 1777.61 465.347 1781.26 467.797C1781.59 470.641 1779.83 473.911 1777.84 476.112C1777.53 476.443 1777.22 476.761 1776.89 477.077C1774.78 472.974 1772.85 467.746 1769.18 464.528Z" fill="#F6F5F8"/>
<path d="M1716.79 506.518C1721.24 507.711 1729.63 510.031 1732.32 513.413L1731.97 514.854C1729.92 515.695 1727.98 516.337 1725.78 516.822L1724.37 516.73C1721.11 514.929 1718.83 509.489 1716.79 506.518Z" fill="#F6F5F8"/>
<path d="M1723.92 445.679C1727.26 446.226 1729.92 446.894 1732.98 448.228L1733.55 449.783C1729.67 452.314 1724.96 453.919 1720.57 455.684C1719.84 453.131 1723.48 448.839 1723.92 445.679Z" fill="#F6F5F8"/>
<path d="M1751.12 447.202C1754.73 446.779 1755.51 446.501 1758.81 448.144C1760.28 450.016 1761.21 452.225 1760.63 454.537C1760.52 454.978 1760.38 455.175 1760.17 455.611C1756.79 452.975 1750.26 453.153 1748.38 449.552L1751.12 447.202Z" fill="#F6F5F8"/>
<path d="M1775.95 497.692C1774.74 498.287 1773.61 498.563 1772.27 498.891C1771.53 497.071 1771.85 495.798 1772.53 493.978C1773.35 491.798 1775.12 489.212 1777.41 488.134L1778.23 490.414C1779.42 492.402 1780.62 493.43 1779.94 495.703C1778.63 496.369 1777.31 497.124 1775.95 497.692Z" fill="#F6F5F8"/>
<path d="M1708.34 497.705C1707.64 498.151 1706.33 497.921 1705.46 497.909C1703.45 496.773 1702.68 496.586 1701.92 494.533C1701.05 492.227 1702.03 490.351 1703.23 488.306L1704.51 488.379C1706.39 490.904 1709.05 494.555 1708.34 497.705Z" fill="#F6F5F8"/>
<path d="M1707.67 464.739C1708.65 465.202 1708.92 465.597 1709.44 466.435C1708.39 469.832 1707.27 472.296 1704.94 475.176L1702.86 475.145C1702.58 472.909 1702.27 470.676 1701.93 468.447C1703.66 466.77 1705.46 465.848 1707.67 464.739Z" fill="#F6F5F8"/>
<path d="M85.9788 638.138C138.039 638.396 184.251 651.326 221.342 684.506C275.34 732.794 287.669 813.568 241.691 869.693C217.265 899.548 177.802 921.784 164.336 957.839C154.111 985.122 169.382 1021.58 168.713 1050.47C168.546 1057.59 167.912 1069.36 161.262 1074.31C149.366 1083.14 111.04 1079.11 95.8025 1078.9C79.1954 1079.08 44.5113 1083.12 31.3125 1074.49C9.89371 1060.5 32.8496 982.781 22.6248 957.519C-1.93499 896.737 -69.065 880.497 -78.0536 804.686C-78.3431 802.188 -78.555 799.687 -78.6886 797.18C-78.8223 794.673 -78.8889 792.164 -78.8889 789.653C-78.8889 787.145 -78.8111 784.637 -78.6552 782.13C-78.5215 779.623 -78.3097 777.121 -78.0201 774.624C-77.7082 772.127 -77.3408 769.639 -76.9176 767.159C-76.472 764.677 -75.9598 762.207 -75.3806 759.749C-74.8014 757.29 -74.1552 754.845 -73.4423 752.414C-72.7072 749.985 -71.9165 747.572 -71.07 745.175C-70.2012 742.779 -69.2657 740.403 -68.2633 738.047C-67.2831 735.693 -66.2248 733.361 -65.0887 731.052C-63.9526 728.743 -62.7498 726.459 -61.48 724.202C-60.2325 721.945 -58.9073 719.717 -57.5039 717.518C-56.1227 715.319 -54.6746 713.152 -53.1598 711.017C-51.645 708.882 -50.0632 706.78 -48.4148 704.713C-46.7663 702.647 -45.0733 700.618 -43.3357 698.624C-41.5759 696.632 -39.7603 694.679 -37.8891 692.764C-6.11177 659.764 37.1934 642.212 85.9788 638.138Z" fill="#6A5D7B"/>
<path d="M79.5149 646.953L84.0911 646.84L103.298 647.041L118.563 648.453C155.807 650.285 193.619 668.997 218.237 692.928C220.063 694.718 221.845 696.547 223.582 698.415C225.296 700.282 226.966 702.187 228.592 704.128C230.195 706.069 231.754 708.044 233.268 710.051C234.76 712.061 236.197 714.101 237.577 716.172C238.958 718.246 240.283 720.346 241.552 722.474C242.822 724.604 244.024 726.76 245.16 728.944C246.295 731.127 247.375 733.332 248.4 735.561C249.402 737.789 250.348 740.039 251.239 742.311C252.13 744.58 252.953 746.868 253.711 749.174C254.445 751.481 255.125 753.803 255.749 756.14C256.372 758.475 256.929 760.823 257.419 763.184C257.909 765.545 258.321 767.914 258.655 770.292C259.011 772.673 259.3 775.058 259.523 777.447C259.723 779.839 259.857 782.233 259.924 784.628C260.013 787.026 260.024 789.424 259.957 791.821C259.89 794.219 259.757 796.613 259.556 799.005C253.878 867.441 208.65 875.909 172.809 924.939C159.515 943.165 151.932 968.782 145.786 989.665C140.809 992.827 139.339 992.737 133.394 993.252C120.534 994.752 106.838 993.439 93.8779 992.917L79.6148 992.944C69.4269 994.408 58.2704 993.013 47.949 992.431L43.3059 991.61C32.6838 974.857 32.8174 953.343 22.3957 936.054C-8.63562 884.441 -62.414 873.172 -70.4975 798.548C-74.4725 761.565 -58.84 727.337 -32.1177 699.079C-3.5916 668.948 34.7551 650.599 79.5149 646.953Z" fill="#C5BDD6"/>
<path d="M80.2759 646.953L84.8752 646.84C86.1173 651.915 85.6134 654.438 83.7334 659.22C71.5134 690.56 56.0034 723.245 53.6198 756.575C52.7469 768.748 52.4784 780.93 52.8141 793.121C53.1722 805.313 54.1345 817.468 55.7012 829.588C59.6291 857.835 92.4621 973.681 80.3763 992.334C70.1369 993.796 58.9241 992.404 48.5504 991.823L43.8839 991.003C33.2081 974.279 33.3424 952.803 22.868 935.545C-8.32 884.023 -62.3701 872.773 -70.4944 798.281C-74.4895 761.363 -58.778 727.195 -31.9207 698.987C-3.2505 668.909 35.2899 650.593 80.2759 646.953Z" fill="#C5BDD6"/>
<path d="M48.3324 992.014L43.6744 991.194C33.0181 974.456 33.1521 952.96 22.6968 935.687C-8.4344 884.119 -62.386 872.86 -70.4956 798.301C-74.4833 761.351 -58.8004 727.153 -31.9921 698.919C-3.37414 668.815 35.096 650.482 80 646.84C79.5644 647.372 79.1287 647.922 78.6595 648.443C74.8729 652.603 48.9359 663.226 41.4965 668.207C-0.592592 696.4 -17.3481 760.021 -14.0641 803.521C-12.5896 822.872 -7.3954 841.702 -0.157141 859.994C8.9577 883.022 57.9501 968.061 53.5938 986.387C53.3592 987.394 49.3042 990.981 48.3324 992.014Z" fill="#F6F5F8"/>
<path d="M84.5104 646.84L103.866 647.041C116.052 667.474 123.593 691.442 129.383 713.809C149.647 792.128 134.398 852.466 112.753 928.837C107.839 946.305 107.3 966.648 100.567 983.365C99.187 986.792 96.6287 989.92 94.3733 992.955L79.9993 992.981C92.1179 974.293 59.1959 858.23 55.2574 829.93C53.6864 817.788 52.7215 805.609 52.3624 793.395C52.0258 781.181 52.2951 768.976 53.1703 756.781C55.5604 723.388 71.1124 690.641 83.3656 659.243C85.2507 654.453 85.7559 651.925 84.5104 646.84Z" fill="#F6F5F8"/>
<path d="M118.889 648.773C156.047 650.602 193.772 669.283 218.333 693.173C220.155 694.96 221.933 696.785 223.666 698.65C225.376 700.514 227.043 702.415 228.664 704.353C230.264 706.291 231.819 708.262 233.33 710.266C234.818 712.272 236.251 714.309 237.629 716.377C239.006 718.446 240.328 720.543 241.595 722.667C242.861 724.794 244.061 726.947 245.194 729.127C246.327 731.305 247.404 733.507 248.426 735.732C249.426 737.957 250.37 740.203 251.259 742.47C252.148 744.736 252.97 747.02 253.725 749.322C254.458 751.625 255.136 753.942 255.758 756.276C256.38 758.607 256.936 760.951 257.425 763.308C257.913 765.664 258.324 768.03 258.658 770.404C259.013 772.78 259.302 775.161 259.524 777.547C259.724 779.934 259.857 782.324 259.924 784.715C260.013 787.109 260.024 789.502 259.957 791.896C259.89 794.289 259.757 796.68 259.557 799.067C253.892 867.386 208.769 875.839 173.01 924.785C159.746 942.98 152.182 968.553 146.05 989.4C141.084 992.557 139.618 992.467 133.686 992.981C141.184 980.033 141.051 962.228 146.749 948.181C170.177 890.697 208.902 843.9 205.136 779.954C203.037 744.188 186.407 696.49 154.881 671.352C144.083 662.733 130.487 658.032 119.922 649.619C119.589 649.343 119.256 649.055 118.889 648.773Z" fill="#F6F5F8"/>
<path d="M31.2475 1002.45C71.0803 998.78 113.77 1001.95 153.802 1002.78C155.231 1004.9 156.626 1007.23 157.323 1009.63C161.476 1024.21 161.51 1057.5 152.274 1069.65C133.371 1076.6 53.5061 1071.35 28.8889 1071.02C38.2906 1057.55 34.9019 1018.09 31.2475 1002.45Z" fill="#F6F5F8"/>
</g>
<defs>
<clipPath id="clip0_55_115">
<rect width="1920" height="1080" fill="white"/>
</clipPath>
</defs>
</svg>
