<svg width="1920" height="1080" viewBox="0 0 1920 1080" fill="none" xmlns="http://www.w3.org/2000/svg">
<g clip-path="url(#clip0_79_529)">
<rect width="1920" height="1080" fill="#F6F5F8"/>
<path d="M255.481 832.827C350.378 927.724 350.378 1081.58 255.481 1176.48C160.583 1271.38 6.72439 1271.38 -88.173 1176.48C-183.07 1081.58 -183.07 927.724 -88.1731 832.827C6.72432 737.93 160.583 737.93 255.481 832.827ZM-42.5958 1130.9C27.13 1200.63 140.178 1200.63 209.904 1130.9C279.629 1061.18 279.629 948.13 209.904 878.404C140.178 808.679 27.13 808.679 -42.5958 878.404C-112.322 948.13 -112.322 1061.18 -42.5958 1130.9Z" fill="#4A3E5C"/>
<rect x="161.994" y="736" width="36" height="76" rx="10" transform="rotate(20 161.994 736)" fill="#4A3E5C"/>
<rect x="248.852" y="779" width="36" height="76" rx="10" transform="rotate(40 248.852 779)" fill="#4A3E5C"/>
<rect x="313.818" y="845" width="36" height="76" rx="10" transform="rotate(60 313.818 845)" fill="#4A3E5C"/>
<rect x="354.845" y="936" width="36" height="76" rx="10" transform="rotate(80 354.845 936)" fill="#4A3E5C"/>
<rect x="361.097" y="1037.2" width="36" height="76" rx="10" transform="rotate(100 361.097 1037.2)" fill="#4A3E5C"/>
<rect x="161.994" y="736" width="36" height="76" rx="10" transform="rotate(20 161.994 736)" fill="#4A3E5C"/>
<rect x="248.852" y="779" width="36" height="76" rx="10" transform="rotate(40 248.852 779)" fill="#4A3E5C"/>
<rect x="313.818" y="845" width="36" height="76" rx="10" transform="rotate(60 313.818 845)" fill="#4A3E5C"/>
<rect x="354.845" y="936" width="36" height="76" rx="10" transform="rotate(80 354.845 936)" fill="#4A3E5C"/>
<rect x="361.097" y="1037.2" width="36" height="76" rx="10" transform="rotate(100 361.097 1037.2)" fill="#4A3E5C"/>
<rect width="36" height="76" rx="10" transform="matrix(-0.939693 0.34202 0.34202 0.939693 6.10303 737)" fill="#4A3E5C"/>
<rect width="36" height="76" rx="10" transform="matrix(1 0 0 -1 66 801)" fill="#4A3E5C"/>
<path d="M1844.04 16.3834C1849.18 16.1381 1854.69 15.673 1859.79 16.3578C1884.64 19.6974 1888.19 79.0103 1904.74 98.1843C1946.25 146.293 1994.49 87.4425 2028.7 92.9846C2033.8 93.8099 2038.34 97.009 2041.1 101.182C2053.87 120.445 2018.96 160.091 2014.4 181.391C2001.66 240.995 2098.2 227.552 2118.83 257.823C2120.21 262.64 2120.66 266.335 2118.56 271.067C2111.73 286.459 2079.53 292.045 2064.72 297.615C2050.29 303.034 2033.69 311.38 2027.72 326.136C2015.96 355.188 2047.32 386.66 2057.28 412.043C2059.8 418.451 2061.15 426.571 2057.6 432.849C2041.84 460.736 1978.77 413.747 1943.87 424.353C1895.18 439.15 1913.9 489.763 1896.06 521.859C1892.58 528.119 1888.86 530.84 1881.86 532.749C1858.38 532.031 1844.69 495.42 1831.87 479.172C1826.12 471.877 1818.99 466.337 1811.35 460.979C1809.46 460.289 1807.56 459.639 1805.64 459.027C1757.38 443.655 1741.54 487.011 1706.18 503.535C1697.89 507.414 1690.34 507.647 1681.71 504.736C1661.52 489.663 1682.45 443.665 1676.87 420.406C1663.09 362.915 1586.89 406.554 1559.93 387.585C1554.12 383.496 1552.27 377.875 1551.42 371.303C1555.05 354.983 1595.85 338.147 1608.52 322.385C1617.12 311.686 1623.99 298.238 1621.42 284.359C1615.2 250.712 1572.02 242.037 1548.13 224.256C1542.07 219.744 1539.03 215.599 1538 208.143C1547.08 170.099 1621.24 201.071 1655.09 170.498C1685.71 142.849 1655.99 111.596 1658.09 80.0375C1658.47 74.2705 1660.46 68.685 1665.23 64.9366C1688.92 46.3248 1722.65 100.837 1761.46 102.735C1814.33 105.321 1815.99 41.6207 1844.04 16.3834Z" fill="#4A3E5C"/>
<path d="M1849.31 24.3855C1853.47 25.1663 1859.41 25.9062 1862.86 28.3609C1881.86 41.8922 1875.04 98.0307 1914.55 117.982C1950.1 135.935 1983.14 113.215 2016.62 104.195C2023.69 102.294 2027.16 102.738 2033.37 105.961C2037.79 119.426 2007.44 164.582 2005.57 185.187C1999.71 250.072 2086.84 235.921 2110.21 262.82C2110.45 276.482 2031.78 291.217 2018.54 323.054C2007.41 349.8 2031.66 383.967 2043.23 407.432C2047.18 415.449 2049.03 420.973 2045.95 429.45C2031.3 436.987 1993.63 417.281 1976.42 414.668C1958.55 411.956 1935.54 413.068 1920.61 424.068C1896.24 442.019 1896.63 476.458 1892.67 502.712C1891.47 510.645 1889.21 516.009 1882.31 520.88C1877.1 522.125 1875.52 523.059 1870.36 521.283C1858.16 491.625 1837.1 460.957 1805.99 447.725C1743.21 436.885 1719.91 498.854 1687.59 497.127C1672.97 479.867 1699.28 429.207 1680.6 403.283C1649.85 360.609 1606.22 389.238 1569.39 380.971C1564.42 379.856 1564.36 379.471 1561.63 375.289C1563.62 360.505 1607.46 341.992 1623 317.68C1630.39 306.111 1634.46 292.947 1630.91 279.488C1622.6 248 1587.9 236.026 1562.19 221.042C1556.5 217.728 1551.64 214.051 1549.97 207.567C1551.78 202.852 1552.42 200.849 1557.75 198.802C1582.2 189.417 1614.46 202.4 1650 184.309C1705.32 156.152 1659.02 109.949 1670.75 74.7572C1671.69 73.7493 1674.74 69.7893 1675.78 69.404C1676.35 69.1897 1677.01 69.4321 1677.63 69.4831C1694.97 70.9171 1725.62 116.022 1773.09 109.712C1821.24 103.313 1825.3 54.6377 1849.31 24.3855Z" fill="#C5BDD6"/>
<path d="M1836.47 166.937C1865.33 168.359 1891.94 175.524 1915.27 192.596C1939.17 210.088 1955.82 235.386 1959.41 264.41C1959.61 266.123 1959.76 267.842 1959.87 269.564C1959.99 271.286 1960.06 273.01 1960.08 274.736C1960.1 276.46 1960.08 278.184 1960.01 279.908C1959.94 281.634 1959.83 283.356 1959.68 285.073C1959.52 286.792 1959.32 288.507 1959.07 290.217C1958.83 291.926 1958.54 293.628 1958.21 295.323C1957.87 297.018 1957.5 298.704 1957.08 300.38C1956.65 302.057 1956.19 303.722 1955.69 305.376C1955.18 307.03 1954.63 308.671 1954.04 310.298C1953.44 311.926 1952.81 313.539 1952.13 315.135C1951.46 316.731 1950.74 318.31 1949.98 319.872C1949.23 321.434 1948.43 322.977 1947.59 324.5C1946.76 326.022 1945.88 327.525 1944.96 329.007C1944.05 330.487 1943.1 331.944 1942.11 333.378C1941.11 334.813 1940.09 336.222 1939.02 337.607C1937.96 338.992 1936.86 340.349 1935.72 341.679C1910.18 372.268 1876.35 382.277 1837.52 386.004C1805.72 384.132 1776.4 376.721 1751.4 356.528C1750 355.413 1748.63 354.266 1747.29 353.085C1745.94 351.904 1744.64 350.69 1743.36 349.445C1742.08 348.2 1740.84 346.925 1739.63 345.619C1738.42 344.314 1737.24 342.98 1736.1 341.618C1734.95 340.254 1733.85 338.863 1732.78 337.446C1731.71 336.03 1730.68 334.588 1729.68 333.12C1728.69 331.653 1727.73 330.163 1726.81 328.649C1725.9 327.134 1725.02 325.6 1724.18 324.044C1723.35 322.487 1722.55 320.911 1721.8 319.315C1721.04 317.72 1720.33 316.108 1719.66 314.477C1718.99 312.847 1718.36 311.201 1717.77 309.54C1717.18 307.879 1716.64 306.206 1716.14 304.519C1715.65 302.832 1715.19 301.134 1714.78 299.423C1714.37 297.715 1714 295.997 1713.68 294.269C1713.36 292.542 1713.09 290.808 1712.86 289.069C1712.63 287.328 1712.44 285.582 1712.3 283.833C1712.18 282.079 1712.1 280.325 1712.07 278.568C1712.04 276.812 1712.06 275.055 1712.12 273.299C1712.18 271.542 1712.28 269.788 1712.44 268.037C1712.59 266.285 1712.78 264.539 1713.03 262.798C1713.27 261.057 1713.56 259.322 1713.89 257.595C1714.23 255.869 1714.61 254.152 1715.03 252.443C1715.45 250.734 1715.92 249.037 1716.43 247.35C1716.94 245.665 1717.5 243.993 1718.1 242.334C1718.7 240.675 1719.34 239.032 1720.02 237.405C1720.71 235.778 1721.43 234.168 1722.2 232.575C1722.97 230.984 1723.78 229.412 1724.63 227.858C1725.48 226.306 1726.37 224.777 1727.3 223.269C1728.23 221.76 1729.2 220.274 1730.21 218.813C1731.22 217.352 1732.26 215.916 1733.34 214.505C1734.43 213.095 1735.55 211.712 1736.7 210.356C1737.85 209 1739.04 207.674 1740.27 206.376C1766.17 178.389 1799.11 169.254 1836.47 166.937Z" fill="#4A3E5C"/>
<path d="M1825.15 176.696C1851.85 174.656 1881.04 182.301 1903.15 196.669C1926.36 211.748 1943.78 234.681 1948.83 261.366C1953.46 285.831 1946.94 310.905 1931.94 331.075C1911.77 358.196 1882.85 369.356 1849.83 374.999C1818.92 377.553 1788.08 370.843 1762.8 353.199C1740.71 337.79 1725.26 314.66 1721.55 288.591C1721.34 287.008 1721.17 285.421 1721.04 283.832C1720.92 282.24 1720.83 280.648 1720.79 279.055C1720.75 277.461 1720.75 275.866 1720.79 274.271C1720.83 272.677 1720.91 271.083 1721.04 269.492C1721.16 267.902 1721.33 266.316 1721.54 264.733C1721.75 263.15 1722 261.574 1722.29 260.005C1722.58 258.434 1722.91 256.871 1723.29 255.317C1723.66 253.763 1724.07 252.219 1724.53 250.685C1724.98 249.151 1725.48 247.629 1726.01 246.119C1726.55 244.609 1727.12 243.112 1727.74 241.629C1728.35 240.145 1729 238.678 1729.69 237.227C1730.38 235.776 1731.11 234.343 1731.88 232.927C1732.64 231.511 1733.45 230.114 1734.29 228.736C1735.13 227.359 1736 226.003 1736.91 224.669C1737.82 223.334 1738.77 222.022 1739.75 220.731C1740.73 219.442 1741.74 218.178 1742.79 216.938C1764.12 191.167 1792.05 180.411 1825.15 176.696Z" fill="#FEFEFE"/>
</g>
<defs>
<clipPath id="clip0_79_529">
<rect width="1920" height="1080" fill="white"/>
</clipPath>
</defs>
</svg>
