<svg width="1920" height="1080" viewBox="0 0 1920 1080" fill="none" xmlns="http://www.w3.org/2000/svg">
<g clip-path="url(#clip0_73_341)">
<rect width="1920" height="1080" fill="#F6F5F8"/>
<path d="M30.251 804.833C30.8238 802.814 31.4468 800.81 32.1198 798.822C32.7929 796.833 33.5154 794.863 34.2875 792.912C35.0607 790.96 35.8816 789.028 36.7502 787.117C37.62 785.207 38.5367 783.319 39.5005 781.455C40.4656 779.589 41.4764 777.75 42.533 775.936C43.5896 774.122 44.6908 772.336 45.8364 770.576C46.9834 768.818 48.1736 767.089 49.4071 765.39C50.6406 763.69 51.9156 762.023 53.232 760.388C54.5497 758.753 55.9069 757.151 57.3038 755.585C58.7019 754.018 60.1383 752.487 61.6131 750.99C63.0879 749.495 64.5985 748.038 66.1451 746.618C67.6929 745.2 69.2759 743.82 70.8942 742.48C72.5113 741.139 74.1605 739.841 75.8419 738.584C77.5246 737.326 79.2375 736.112 80.9808 734.941C82.724 733.769 84.4958 732.642 86.296 731.558C88.0962 730.476 89.9223 729.439 91.7745 728.448C122.511 711.711 159.385 709.58 192.664 719.551C226.211 729.603 255.353 751.921 271.935 782.941C286.073 809.388 290.191 841.543 281.359 870.405C280.504 873.198 279.617 875.98 278.477 878.672C277.716 880.69 276.906 882.688 276.046 884.666C275.186 886.644 274.277 888.6 273.32 890.534C272.363 892.466 271.359 894.374 270.308 896.257C269.255 898.141 268.157 899.997 267.014 901.826C265.869 903.654 264.68 905.453 263.447 907.223C262.213 908.993 260.936 910.732 259.616 912.438C258.297 914.144 256.936 915.817 255.533 917.457C254.13 919.096 252.688 920.7 251.205 922.268C249.722 923.835 248.201 925.364 246.644 926.857C245.085 928.349 243.49 929.802 241.859 931.216C240.229 932.629 238.564 934.001 236.865 935.332C235.167 936.663 233.436 937.95 231.673 939.194C229.909 940.44 228.117 941.641 226.294 942.797C224.472 943.953 222.622 945.064 220.745 946.127C218.867 947.192 216.964 948.21 215.037 949.18C213.108 950.15 211.157 951.071 209.183 951.945C193.637 958.856 177.4 962.279 160.514 963.778L160.632 984.233L161.748 994.697C159.921 995.644 158.075 996.565 156.141 997.281C147.239 1000.57 138.802 997.937 130.54 994.314C127.945 985.184 129.758 974.954 128.077 965.393C122.814 959.688 94.265 953.698 84.648 949.169C78.3659 946.211 72.9338 941.943 67.5296 937.641C54.8875 928.862 44.3184 916.228 37.3181 902.628C22.5102 873.859 20.6005 835.479 30.251 804.833Z" fill="#FEFEFE"/>
<path d="M30.1172 804.938C30.6903 802.917 31.3136 800.911 31.987 798.921C32.6604 796.929 33.3833 794.957 34.1558 793.004C34.9294 791.05 35.7508 789.116 36.6198 787.202C37.49 785.29 38.4073 783.4 39.3716 781.534C40.3371 779.666 41.3485 777.824 42.4056 776.008C43.4628 774.192 44.5645 772.404 45.7107 770.642C46.8583 768.882 48.0491 767.151 49.2833 765.45C50.5174 763.748 51.7931 762.079 53.1102 760.443C54.4285 758.805 55.7865 757.202 57.184 755.633C58.5828 754.065 60.02 752.532 61.4956 751.034C62.9711 749.537 64.4826 748.078 66.0299 746.657C67.5785 745.237 69.1624 743.855 70.7815 742.513C72.3994 741.171 74.0495 739.871 75.7318 738.613C77.4153 737.354 79.1291 736.138 80.8733 734.965C82.6175 733.793 84.3902 732.664 86.1913 731.579C87.9924 730.495 89.8195 729.458 91.6726 728.466C122.425 711.709 159.318 709.575 192.615 719.558C226.179 729.622 255.336 751.965 271.927 783.022C286.072 809.499 290.193 841.691 281.356 870.586C280.5 873.382 279.612 876.167 278.472 878.863L274.319 873.477C274.235 871.922 274.593 869.187 273.425 868.157C268.115 863.469 259.024 861.899 252.31 859.782L253.244 815.238L208.231 789.416L199.847 770.568C208.6 760.834 217.565 751.638 227.142 742.71C217.132 737.081 207.341 731.375 196.536 727.378C187.353 734.172 178.257 741.082 169.25 748.108C144.629 749.787 129.429 758.312 108.889 760.938C95.5589 762.641 80.3497 758.556 66.6909 758.65C70.4974 767.785 74.6586 776.913 77.7204 786.328C93.9398 787 109.218 789.508 124.899 793.704C127.153 807.937 129.912 822.287 131.321 836.622C145.771 844.035 160.945 849.948 176.128 855.683C177.421 861.873 178.798 868.063 179.851 874.297C167.787 888.541 155.926 903.042 143.387 916.871C132.155 916.091 120.966 915.271 109.7 915.238C102.377 924.864 94.7475 934.477 88.1743 944.637C85.9703 941.303 84.8562 941.383 81.1927 940.058C77.7595 939.765 74.2222 936.64 71.4091 934.746C64.5259 929.065 57.9008 922.819 52.4046 915.768C27.8593 884.278 28.5705 847.69 33.426 810.263L30.1172 804.938Z" fill="#4A3E5C"/>
<path d="M30.2456 804.44L33.5497 809.77C28.701 847.229 27.9909 883.848 52.5012 915.366C57.9895 922.423 64.6052 928.674 71.4786 934.36C74.2877 936.256 77.8199 939.384 81.2483 939.677C84.9065 941.003 86.019 940.923 88.2199 944.26C90.2187 945.586 92.2527 946.682 94.4574 947.62C96.5934 948.51 98.7504 949.348 100.928 950.134C103.105 950.92 105.3 951.653 107.513 952.333C109.724 953.013 111.951 953.639 114.195 954.211C116.437 954.781 118.692 955.298 120.959 955.759C123.227 956.221 125.505 956.628 127.792 956.979C130.08 957.331 132.375 957.627 134.676 957.867C136.978 958.107 139.284 958.291 141.594 958.419C143.904 958.547 146.217 958.62 148.531 958.636C150.845 958.651 153.158 958.611 155.471 958.515C157.782 958.419 160.091 958.266 162.396 958.057C164.7 957.849 166.998 957.584 169.29 957.264C171.582 956.944 173.865 956.569 176.139 956.138C178.412 955.707 180.674 955.221 182.925 954.68C185.175 954.141 187.411 953.546 189.632 952.896C191.854 952.247 194.059 951.544 196.246 950.788C198.434 950.033 200.602 949.224 202.75 948.363C237.128 934.271 260.09 906.67 274.099 873.038L278.246 878.429C277.486 880.451 276.677 882.453 275.818 884.435C274.958 886.417 274.05 888.377 273.094 890.315C272.138 892.251 271.135 894.162 270.084 896.049C269.033 897.937 267.935 899.797 266.793 901.63C265.65 903.462 264.462 905.265 263.23 907.037C261.997 908.812 260.721 910.553 259.403 912.263C258.085 913.973 256.725 915.649 255.323 917.292C253.922 918.935 252.48 920.542 250.999 922.113C249.517 923.683 247.998 925.216 246.442 926.711C244.884 928.207 243.291 929.663 241.662 931.079C240.033 932.495 238.369 933.87 236.672 935.204C234.975 936.537 233.246 937.827 231.484 939.074C229.723 940.322 227.932 941.525 226.111 942.684C224.29 943.843 222.442 944.955 220.567 946.021C218.691 947.088 216.789 948.108 214.864 949.079C212.936 950.051 210.987 950.975 209.015 951.85C193.483 958.775 177.261 962.205 160.39 963.708L160.508 984.204L161.623 994.689C159.798 995.638 157.953 996.561 156.021 997.278C147.127 1000.58 138.698 997.935 130.443 994.304C127.851 985.157 129.663 974.906 127.983 965.325C122.724 959.609 94.2015 953.607 84.5932 949.068C78.3168 946.105 72.8897 941.828 67.4903 937.517C54.8597 928.721 44.3002 916.061 37.3063 902.434C22.5118 873.607 20.6039 835.149 30.2456 804.44Z" fill="#4A3E5C"/>
<path d="M133.607 963.008L154.182 964.4C154.128 973.927 153.956 983.452 153.664 992.976C147.309 992.948 140.308 993.459 135.313 989.014C131.329 982.25 133.325 970.691 133.607 963.008Z" fill="#FEFEFE"/>
<path d="M127.979 964.942C129.662 974.571 127.847 984.874 130.445 994.068C138.719 997.717 147.167 1000.37 156.083 997.057C158.019 996.336 159.868 995.409 161.697 994.455L160.58 983.917C188.012 983.945 219.19 987.519 243.601 1001.03C253.022 1006.24 262.954 1013.83 265.855 1024.8C267.581 1031.33 266.279 1037.54 262.842 1043.22C253.066 1059.37 229.709 1066.95 212.352 1071.44C160.876 1084.76 91.7694 1084.57 44.9353 1056.22C36.5869 1051.17 25.7965 1043.64 23.6964 1033.33C22.3546 1026.75 24.8896 1020.4 28.6604 1015.14C51.0126 983.958 92.221 987.457 125.15 981.977C128.358 976.725 127.677 971.023 127.979 964.942Z" fill="#4A3E5C"/>
<path d="M161.78 994.331C166.383 998.709 168.568 1006.61 168.708 1012.81C168.87 1020.05 167.576 1028.08 161.992 1033.24C157.867 1037.05 152.15 1038.59 146.62 1038.41C145.598 1038.38 144.58 1038.29 143.565 1038.16C142.552 1038.03 141.547 1037.84 140.551 1037.61C139.556 1037.38 138.574 1037.1 137.606 1036.77C136.638 1036.44 135.689 1036.06 134.759 1035.64C133.828 1035.22 132.921 1034.75 132.038 1034.24C131.153 1033.72 130.297 1033.17 129.468 1032.57C128.639 1031.98 127.842 1031.34 127.076 1030.67C126.311 1029.99 125.58 1029.28 124.885 1028.53C121.033 1024.37 118.84 1019.04 119.366 1013.33C120.045 1005.97 124.96 998.592 130.531 993.948C138.804 997.563 147.252 1000.19 156.166 996.908C158.103 996.194 159.952 995.276 161.78 994.331Z" fill="#FEFEFE"/>
<path d="M1820.85 56.0787L1835.42 60.4276C1859.47 93.1849 1858.58 196.023 1865.88 239.848C1902.54 258.673 2009.91 298.176 2029.86 326.085C2034.34 332.347 2031.46 335.331 2029.26 342.001C1989.99 375.683 1912.42 399.357 1861.93 421.22C1855.8 460.43 1855.95 570.264 1821.49 594.628C1782.23 594.4 1704.01 512.164 1675.19 487.099C1674.25 486.18 1673.41 485.164 1672.35 484.337C1649.41 466.475 1444.44 518.245 1450 504.983C1456.11 438.478 1513.29 386.238 1548.44 328.341C1526.03 292.702 1456 203.769 1467.71 167.158C1498.27 149.676 1628.29 180.215 1669.69 186.293L1820.85 56.0787Z" fill="#C5BDD6"/>
<path d="M1830.31 639.86C1867.58 638.547 1905.17 639.342 1942.49 639.354C1949.63 648.017 1945.95 671.072 1944.04 681.212C1952.23 682.047 1961.35 681.15 1968.95 684.085C1973.55 685.866 1976.31 688.675 1977.53 692.605C1978.82 696.674 1977.86 701.931 1974.98 705.45C1970.12 711.396 1957.16 712.001 1949.08 713.229C1948.13 714.291 1948.07 714.235 1947.47 715.686C1943.6 724.702 1945.92 806.479 1949.33 815.908C1954.97 831.395 1971.94 852.62 1981.4 867.683L2045.89 970.144C2058.83 990.52 2072.92 1010.77 2084.38 1031.7C2089.38 1040.85 2092.42 1048.81 2087.51 1058.53C2082.36 1068.77 2071.49 1074.53 2059.33 1078.48C2020.77 1079.81 1981.91 1079.12 1943.3 1079.16L1799.82 1079.46C1775.3 1079.5 1749.17 1081.01 1724.86 1078.79C1718 1078.17 1711.53 1076.54 1705.66 1073.6C1692.24 1066.88 1683.15 1055.23 1684.6 1042.14C1686.28 1027.07 1781.18 883.896 1794.8 862.676C1803.35 849.392 1815.53 834.74 1821.17 820.544C1829.38 799.843 1826.9 775.276 1827.08 753.614C1827.15 743.411 1830.26 724.598 1825.68 715.766C1823.26 711.112 1810.78 711.707 1805.14 708.745C1800.68 706.387 1798.83 703.051 1798.12 698.875C1797.48 695.14 1797.98 690.869 1801.14 687.942C1807.81 681.72 1819.76 681.869 1829.09 681.546C1832.68 668.442 1831.55 653.207 1830.31 639.86Z" fill="#4A3E5C"/>
<path d="M1831.59 713.041C1862.54 708.515 1904.58 711.796 1936.87 711.896C1950.52 731.215 1931.48 790.069 1942.39 815.511C1950.41 834.146 1964.96 853.061 1976.04 870.693L2045.57 981.229C2056.95 999.317 2069.94 1017.46 2079.77 1036.09C2083.53 1043.16 2085 1050.91 2080.76 1058.14C2075.81 1066.63 2066.07 1070.52 2055.87 1073.84C2017.36 1075.17 1978.21 1074 1939.65 1074.03L1797.94 1074.35C1774.24 1074.45 1747.23 1076.54 1723.9 1073.62C1713.84 1072.36 1703.86 1067.43 1698.01 1060.67C1693.73 1055.73 1691.4 1049.23 1692.49 1043.19C1695.71 1025.23 1790.46 883.215 1808.65 854.512C1814.64 845.064 1828.9 828.242 1830.6 818.013C1830.69 817.399 1830.76 816.781 1830.83 816.165C1837.19 806.236 1835.76 725.152 1831.59 713.041Z" fill="#C5BDD6"/>
<path d="M1835.57 646.479C1861.5 641.661 1908.29 645.153 1936.54 645.289C1937.53 646.659 1938.22 647.638 1938.68 649.197C1940.75 656.132 1940.73 673.755 1936.13 679.845C1930.57 684.225 1848.39 682.105 1834.44 682.075C1834.81 681.581 1835.23 681.103 1835.57 680.595C1840.83 673.018 1838.72 654.495 1835.57 646.479Z" fill="#6A5D7B"/>
<path d="M1808.61 688.108C1809.79 687.957 1810.98 687.832 1812.18 687.743C1833.48 686.145 1956.84 684.755 1967.06 692.271C1970.32 694.681 1969.86 695.874 1970 699.216C1966 703.829 1965.06 704.045 1958.45 706.047C1923.89 707.593 1850.77 709.08 1818.11 705.749C1810.96 705.022 1809.12 704.351 1804.7 699.805C1803.62 695.158 1806.11 692.133 1808.61 688.108Z" fill="#C5BDD6"/>
</g>
<defs>
<clipPath id="clip0_73_341">
<rect width="1920" height="1080" fill="white"/>
</clipPath>
</defs>
</svg>
